<mxfile host="Electron" agent="Mozilla/5.0 (Windows NT 10.0; Win64; x64) AppleWebKit/537.36 (KHTML, like Gecko) draw.io/24.7.5 Chrome/126.0.6478.183 Electron/31.3.0 Safari/537.36" version="24.7.5">
  <diagram id="7ohDsHdsWYY5jcorP2mP" name="Page-1">
    <mxGraphModel dx="1358" dy="801" grid="0" gridSize="10" guides="1" tooltips="1" connect="1" arrows="1" fold="1" page="1" pageScale="1" pageWidth="3000" pageHeight="1920" background="none" math="0" shadow="0">
      <root>
        <mxCell id="0" />
        <mxCell id="m1atIyZ4gX1CUayxEhNT-13" value="Bitmaps" parent="0" />
        <mxCell id="TpqVqiyU344UTFMwb6-c-1" value="" style="shape=image;verticalLabelPosition=bottom;labelBackgroundColor=default;verticalAlign=top;aspect=fixed;imageAspect=0;image=data:image/png,iVBORw0KGgoAAAANSUhEUgAAAeQAAAE5CAYAAABBDlMIAAAgAElEQVR4Ae2dXawlV5Xf6znJwCQBZZ5GgpnwNmkpmcTHM6M8JCQvvOcxipnTjBmQo/BpwF/tNgOGMz0SAwYmwkZgbDBuG67bgNv2IGIiMXJDetq5YAMN8vjbvk2avrTtC2rtaNU+69SqderzfFad87N0XLWr9lf991rrt/c+dU8nSZKE7HMu/OAHPwjf+c53wgMPPBC+9rWvhePHj5d+7r777tCnz1133RXafO68885wzz33pDqIFmWfD3/4w6X3bJl157v33ntD1eemm26qvK9lyVes4yJ0OXTom+HQoUPu883KcVlEuzq2cqS+5Y3vLDqvO27YGFZ0vuz+ff3rXw9Fn7/4i7+Yur6zsxP8R/L5a0XpunyHDp10fil+enKq7vvuuy/I5yMf+Uh6/NQX7g23jD+fveP+8Lm7HwpfuO9/h39/8scpe2+55Zbw6U9/Ov0kGYyT8LrXPR4efvjh8MMf/jA8+eST4dy5c2F/f58PGhgbuBD296s+3l6q8m7evV/tXwhVH69dVd5u3vtl+NW+/VQ/b/0z2Lo4z2u7iXqcD7/ab/PZLA1eeOnF8KOfnA3fffTvw3+5/Vvh9a9/ffjUpz6VfgTMSZL8IiTJufC7v/uDcOWVp8JLL71kgq8PrqSZoNRB1NtIXf7NuV8Pn/yzNsmfzyPBaV4AavlZ6vLBUeua9ejrI735QNYx3l4o6xiffe758Pa3Xxk+/vGPh09+8pMplJOf//zn4bvf/W549NFHATEr4QY2kIeKX/FNT1jq8m/G/aagVL2a5s/yaSCbFX5STuuQY9t6bNlZyvv2fH2k8+ODHpkeAu/N1ePOO+4Ix44di0D+0Y9+lO7DszL2KzvS03AVTeoA6nWry9//+23gJvq1yR/z2mA0b3mpq20dtv1Zyvv2fH2kNxk4PFu1fT/99D+Ej33sY+ETn/hESL73ve+F06dPN1gZ+UBLuhhYXdPFA69t/3x5n/b1+fs+3Ta/L7/etIeZn6D4+4tPe+f2sKtLr7u875/vD2kAtn028PDDD4W//Mu/DMm3v/3t8LOf/Qwgb+x2tQeYB2Jd2pf3aV/e3/fptvl9+fWli+C6WiD7QOXhVpf25SVdV8be9+Xtvbbnvi7SgLjMBjZ7y1rG/cyZ0+l3ycn9998f9vb2ADJALrGBOgC2BWzb/HXtr+Z+GbhWB2QfrBYFwKb1zNK+L0Ma6M5qA+UvgV3c/2Xo++f5558NH/3oR0Mif4/Vj61XH8hJNxs3D6y2uvnyPu3r8/d9um1+X3716TIYy/XVANkHsaYQ1Xy+vE1rnqqjzS/nVXnlns9PGk0WYQPlUJY/peo7lOXvoAHy2lfGPqh7YLVNt61v3vy+fLfSHh4eoG3Tvr7Vp31gq4Ojv+/L+7TP79Pz5vflSQPrKhvYbAjbSUQKZPkFlGYrrbZgIH8zXT3A5tWtbX3z5vflu5W2wKyDr+RtksfWudhzCUwegD7tg5e/X5f25W16lrJVZWzdnAPeWWygGsj6IyMWbKs6f8Mb3xi++Y37S1fmcu+Nv/d7pfd9P1cC5PPnz5cC/w1veEN47LHHSu83A9q8AJutvPzC2Sz9u+2229KfS8vKeghM90faknJZmek82b3q+obDoaurOn9Wr7bp8xen3/zm/5g+59GjN4aTJx9Iz/VX4WTc68DX9L7UX1WfAq6uPptP6pSPlJHnEM20vOZre1Q9pK7ishqsygH3+dtuzek4HP5pSV3TdcjzqP56fPDkt8z28nSZfD+1f/EodUh/8nlsHfn8wAg9ZrOBZkBWMBcdPfgWlRbg/ovf+Z1CKFfdK2u/MZD/4amnwwMPf6chEDRw74cLFy6Ev7n1C6XlthHIEpDf/OY3Gyh6oGX6TcOwyb3q+lYJZAGxgEyOAiSFmvRBPppe5lGAUVe/hYrktUD2ZW3etucCMHnu6XI2WFuoZefSJ/EXG9REU/lofXL+4MkHJmm9Lkd9Ji3/2GN/P54wHSnMb8tqmeJj1sesjH0ezot1Q5dmuswPZIV0GQjnuV4E3qJrTdpIgSw/Fl4X+L/69W+E+74pwbUJELI8Tz/9dLj6yM2l5TYDyD7gZ89fpJc8swdUPuhXl8/n9W1Lurp8BPKtBlLV+du3F/skcCgD8mOPnalc1da3mT13BoEIhrqydfnlfgavadj4+n19VelyINt2fKC+EEQvWZEW1S32pCvdZkDO2srqtW1m94vaaxZEbX2co5m1gcUBVkFbdWwCwnnzWAB/8xsnxqvmE+Fi+qKZvGzW7CP/SEfSBMh//T9vDw8+/O3aYO9h8L2/+7vw3z94U2k5C2RdNep2WlxBRVjoNq/ck+u2nFw7evRoGrB0+1vrkOPJkyfT9uWo16W89lXq0+ty1Ov+aPug7cU8cQXYtI74XBfGz3BmAkYJpreZLUn7/P55bT4BhNyX9qUO7XfZc8l1Ka9g0bJSXrfFRcf882QA1HLZ0QO9GZBjXy+k4ykAlPbkKPXavkcdLqT3BSDarlyX/BZysjrUfscxzuCq5SxstV0tI/ULhGweaUfasHVrfrmuUNNrUlbqkOvSB30WuWb7Wgw7gaENXnIey4le02V+GWTb+ujRI+nYax+kXZ/XPlO8F9uRvLJalnalf0V16DPIPWlL8tpyMiHQctJP+egkQfLZerW81GHLSXl9dikv+eSalNXrHL1t9Dm9WWBWKMct7PYwFmg3BvKdd9wa7rv3K5Ngr0G/7njXHZ8Pt33h86XlolPH75AFyJLWOsUZBQwKB4WtglHTkk8AqeVsnXJN6/TX5Z6Uk3a1rNSt+fWaHBXmes0CWQOvBnzJKwFM89qjtKWrRg2QWk6CkG1bn1/K277L9Vh/Bi7pg9Qj+XQCYtuV/qpGUlaBLG3a/Np+7GecyGj/yo/tgRwDbgbf2G4EuddF+iua+euig/TJQk7qUS20v76cphVYmk80kbbkus0j1yIU4spR8kteyaN12KP0S9LSDznPykbgaRu2TP7cB9n8M2Z5Yz4Bl0JOdK3eso4wtWCLZb6VwlHOtX7ptzyj1Bev5/sVtY4gl+dUACtkNS35tLxuk0v7ci73tC+SP34n/ss0v5bR+xzz+m+XHquFd9WKW+4VrajzQJYXvZqtim2+xkC+/8S94br3XxWqXtCyAJDzn/7kiXDVlf81PPCt+wrh5EGTh8B+CkqBhUBSgpitPwaDCPIYmCMUFN5yzX7kutRh80p9vk3fJ23TAk2vaV0SnG1bci7903x6lD7E6xE8HuQSgCKs47PYvk0/b6xDIaJQkWcsW+UWAdn3W9KiueSV8zjpiW1pG3JU2Gj5mE/BHPNnzzO9gxDHM+aLfc5W7FJO69WjgMHqZZ/bAjkb46zPClftv6YVPNqGHKW8XLd55FoG1fjsERbZ1q62q3VJHdrf2E4Mprav2r4c/eo7H2yLgJwFZ10hSxnpVzGQf5lCW8Ft64+29feTFak+gxz1OaM28gJZ1q6WE5DGfNm92I/4wpjm07KaFi1sW3Iu97LnsC+cZXVrPRy3UZNugllhLEd7bmHb5LwxkL/3ve+G97z3f4QPfOB94cYbj4Q3/6f/HP7oj/84DAZ/FC67bBD+4A/+Vfj93/+X4U1velP4wz/8t+EjH/lw+PO3vy18fPSx8NRTT03BSSEVnTNbIdvVmgJJAKMwKSonjqzXM+gpHKaP6vhSRtvQ8nKUPtm0nEv7CjoN7LFdWS1NTxjy5SMcJMhLGf/RZ876Mg20qFNcBWu70o8MTPE5BQxyTYGpfVXASDrmiW9sx7q8RhnMpN3pPNl9rb/oKEFZdwPkKOmifNpnvWfL6TU96j05yjPK9UyD2C8BnPRZ+i7n9tklv01LPqlH8iksfR7pnwWy1itl5CP3pU5NS51yngdyzBvbyINNy5Uf42oy1itBOJsIyHm0jbhSFV10ZZoBK+bX586uxy3j+DzlwNb2FKAKdW3Xrmy1btsPzaf3NF2sRYSMLa/lOG4jgOWZuwlhXSXnASy/GHY+zPo9cmMgC2C+9rW7wpEj14R//W/+XXjNb78+vOa1rwv/5Lf+afit1/7z8I/+8Wvi+Wv+WXjNb78uvPXKPw+f+pvPh5/+9KdTcLOwis5ZDWQBlgQjLScAjIF0eoUseaTODJ4eNjGt7QpoBYS2bpu216VMTMegHvskgTd+35pfJdp2IyikvAJKASNBUgK61LtoIMf+Zm1LW9JuBGAEsrTpJzvaNz1m/dJnWi6QpZ8SkLV9exT4yj17vwjIGajOpMC2+UUX1SJCLgJL8sSxyKAt9cg1BbKc+xWova/QknLNgJyHq8IvO2ZBWFbC0vfsnv5JVgZ4yRP7mpXT/PLM8lGwCUjl+RXgmtb78Wj7FwEuOsk96YtsO+s2tBzlutaj9Wo+rVfTvpzel6O0oeXtdc7tuG7LebeArBMEAfI0jCOQZ4VyKyALNH7xi3Ph1ltvC4ff9vbwZ1e+IwzfdmX6+W9vPRyueOvh8KfDPwvXXn8knDt3bgI5hVrRMTpnNZClnEBDgod8JADacnLN1q2A1PwKWCmj1yyEpD69LnlsXfbc5pPAFtsVOO2nEwCtQ462fgGKgDjWnYeZBO1Yz2KBLG1KUNM+Sd8VQnJuJyyaR47aR1/W6mABWXUudegEpM0K2fdd+iU6aVuSFghr2gI5P8Zx1Sr57HXVQkBlx1TO5SP5M3hlQNYxt3rJNbvdrPVJ3dNA1u+QFaAWdkXnPuBmE0HbBwsunRDI82bwinUX9T/LE9uS1a+tW+pTwOp1Ba+0oefaruSRcZeP9svmk/Zs2paTsrr6tuV9H0l7u9j0dDeBvH/h/6U/+vGNb5yYWsXr9rSslOXHQzRdd2wN5Hxg1hXT6o/ivOvrSx6q9f3w+X3a6+fv16Xblvf5fdq3V3ff549pC2SF5yqOuiLUY1Gbeq/oKPmLrs93LQZNAZCsYuvr8kHW9ynet7BUOE4Dq7jsdD7f5uxpC91ltkPds49Rf7TrJpBlpSxQ1hVz0bEOwP5+L4EsqxBd9dbD0MNklrQHTl0dPr9PL7q8r9+nfXv+/nLSAuS46olb5UVgXMU1Dz/fpr8/nfZBzwPOp4vzqx4RyDaPL+/TNq+c1933+X163vK+vnxaVrkC5P4E/Hz/6fey9eguYIug2vaah2ybdG+ALIFdP+LsqwGxgswDS6+XHX1+ny4rp9d9fp/WfHr0931a8+nR39/stAfYcoFcFMzqAOjv2/Qs9RWVsde0fnttvnPxSfVPOQK1+fTcDv0As4d1b4C8WgAruPTogaXXy44+v0+XldPrPr9Paz49+vs+rfn06O9vdnp1QC4LwgpAPfp8et0ffT5NN82n+TluB+Cmx1nfBO7/sf3f9HrY9SENkGt+ZjJOBDywFGxlR5/fp8vK6XWf36c1nx79fZ/WfHr09zc7vRogTwfDDAJ1APX3JT1PfVVluVet7Wbo038Ay9vKRZ/NBjNAToFcByQFWdmxbfm2+X27bcsvOn9dfeu9Pz+AiwBpr/mgbe/VwVTK1uWvuz9v+7486U2GdDHYimDX1WubDWG7cgfIALng+/j1AtV/x2vTAjOb9ufTsMvnL7qfv1YETAvIInjZ+3JelEevNcnbJI/WJ0eb317nvHosNluf/oNYJwhbBuR77723ICj7Vdkmp/NB2wf5+u+v25Zvm99r37b8ovPX1bec+wqe6fGJ7el9f9T8/vp0WgO0BZw91/v+aPPIub+v6UXn8/VqmmP5GGy2NnUQbvvG8LLy1/Uzf397gHzTTTeFBCDXAcQD0afblm+bf9Xt1fVv9fctPBWw9mjv+3PJ569Np22gLspv7/tzn9/fl3STPFquTV6tW8ty3EYY5wGmK8vsuCywzltvXb/jfYC85StmD0CfrgNS2/x19dXdb9te2/x17a/2voebBXMz+Hrg+bSHWt39tvkXXZ9vn/Q2QlmfuQ5y80J03vL2O1PO85MNVsiN3rJuC7C2+ecFWtv22uaft3+LLd8vIBfB0QK56L6/1ja/L09aYbXJxzoQy/15YbrI8sA4D2PRYwJk+WcV+aABNoANYAPYADawHhsAyExEmIhhA9gANoANdMAGAHIHBoHZ6Hpmo+iO7tgANtAlGwDIAJmZMTaADWAD2EAHbAAgd2AQujRDoy+sGLABbAAbWI8NAGSAzMwYG8AGsAFsoAM2AJA7MAjMRtczG0V3dMcGsIEu2QBABsjMjLEBbAAbwAY6YAMAuQOD0KUZGn1hxYANYAPYwHpsACADZGbG2AA2gA1gAx2wgRTI99xzT+PB2NvbC88++2x45pln+BgNRBPRhpnlemaW6I7u2AA20HcbaA1kAc8rr7wSDg4O+BgNRBPRpu8GQf8JatgANoANrMcGWgNZVsbAuHgywq7B6ndNdGcC7Yu1V30IsOsJsOiO7m1sACCbVe68Ew2Bwv5M/3qU/9eXSDfV8cKFC+nORNP825ZP9WkTFMgLRLCB9dgAQAbIvZ9EMBGqnsCJPgTY9QRYdEf3NjYAkAEyQN7wXQ2ADBTaQIG867OXFMjHjx9vPIMW5553a3dTy7NSq16pLWu7GN2rdQfI6wuwwA3t29jA0aNHQwKQi1/SajtxAAzVYADI69OnTVAgLxDBBtZjAysA8k4YJklIJp9BGO2WAHB3FAZJxf267eV5yx9IX2dvHyCvDzjLgv0m1MsKeT3BFaihe1sbWBGQM8jtjgYhGYzCbh1c13J/lUA+Hq5IrgjHC7+/lHuXhZtPLwhwp28Ol9n6jl8RJ0iX3RxO+3uF/WnZj7I6pV1pcxFtmDrmnQgdvyIJyRXHa75LN2NS9nymT/tN8tj8rc5NXxqUA8iAoS0YyL8em1k5kA/mXIW23UZul39TgFwVsOVeEq443hKyDQJ/9WryeLhiCTCWNucCsoDzsivCFZfVTYCqNF2DlnaCVTM2AHk9wRWooXtbG1gzkCMAh8NBSJJh2MnBegzH0XCy3T0Y7ZoXynbDaJBthQ93ZBvcAnV8viPb4DGfLb8zzMomw51xvbZ8ybZ6xcq9HRgkwC9rhVwFj6p7SwTL6dMLXxnrBKCd7vlnPH3zZeGym08HPWqd08c16VYI23Z9AciAoS0YyL8em1k5kPNb1gLAJGSgtECM9yaw3BEwC7QFlBHGWTmFZ0F53R4v/X7Zl8m219utrg9artQkqBogp1uccZJw2c0357eszb1kUmYclG8ebz8nSQqW/X25biYb6VasBvD8PQFRzG9Xh6fDzZdl5XUlnW7rar257d2i/NreGH65/tvV+Tjf1DPkoTkNx/z92YEsfR8/e7pSdtvppt/5MXHPt788DYp19+3n9fB6AeT1BFeghu5tbWBFQM4CfAZVv6L1aQtKdy+Fq8JZYezy5FbLMY+siuNK+iAcpIDXfimEfZu27vrzdmCQoKpAlvMMVLJaSyZbki74Hr8iD16FY/q9sK3PQtbWYc8lkNt0BEsEdVmQb5Lf5pHz7Nny363Ge5Pvb3PPUNb+9PV2upvyOQgbOKer0ny/y8ekTLNFa+Drs+NrnqlgRQ2QAUNbMJB/PTazIiAr8DzUPABt2p5LOZOeCchxVZ0COVdermv/TBsVW9NlK+d2YJAAOwZoDgwSXE3wNau0yZvquVWvBmNTxpafwEUDuM1X1JZCXesdH/VFsHSVbFaV+gw5EJg20v7n65RVX1x5m3xT/XTt5+rP32une1bWb1On0NUJTtWYWH0Lni+uUM2zFeRprEGR7rb9Cl10pQyQ1xNcgRq6t7WBfgK5xZb1ZFvbQlhWx4Vb2V0Fch5oUwF/CmYGBm3uFYAjbSt33awkc9cz0E1PKPL9bwyjBrCR/s0GZNFId0jscdxXebbcS2hWU3O+TA1ydRvdAXLjHzJqGxDJD0TXaQM9BbKumLNAWvZSV3xhLOabbFePgZ6uOAfDMFz3CjkNsLpq3E9fMMpvWev3wyXQawPdqWBu4DL+LnRqy1pWaQqnFBK62p51u1YBbduWZ/Np+7zl5zMB2T7TBPzxebLVe9WYrEAD28ec7u10YoUMZNYJGdpubn8rALLfpl5Ver7Vbtm2dNX1dmCQoKpg2g/7Zmsy/wLRfojfu2aTj/idqw/K+fTkZaCp7e18vmkIyv2srQinCKp0AjP1J0JF+V0bKUy0TgVZEYBduQkoy2E86wpZ9JmaeOyPJ0O6bV06Jr6fy9KgTHfffr0+BMXmQRGt0GpdNgCQZ/iuuAzK7YBcHUTjtjR5muiA7tV2wgoZwKwLMLTbzvYAMkCu+YWq6mDfBJjLzgOQq8cIILcLikAEvdZlAymQ77777sYvSYhzl60Qt/06YKgGw7LAjO7VugNkALMuwNBuO9u78cYbQwKQF/O9NmCoBgNAXp8+BMZ2gRG90GsdNgCQ2bJmy7rhy2PLmlAsu15WyMBlHXChzfZ2B5AXDGQJfnzQABvABrCB7bYBnWi3mZgA5AUCedu/Q+f5F/PVBzqiIzbQbxuQyRhABq68cIcNYAPYADawZhsAyGseAGa0/Z7RMn6MHzaADSzKBgAyQGZWjA1gA9gANtABGwDIHRiERc2uqIeZOjaADWAD/bUBgAyQmRljA9gANoANdMAGAHIHBoEZbX9ntIwdY4cNYAOLsgGADJCZGWMD2AA2gA10wAYAcgcGYVGzK+phpo4NYAPYQH9tACBvKZD39vbC7u5uOHPmDJ8N00DGVcaXwNztwIwPbm7smdUH5wLyV7/6Vf61p54CXQzm4sWL4dKlS3w2TAMZVxlfgNxtIOODmxt7ZvVBgNxToM4bbGVlDIw3NyDI+M5rI5RfLtDxwc31P4mts/ggQAbIgHnDVsizBgMAvFwAe30BMkD2NgGQATJABsisptcQBwAyQO4wkHfDaDgKuwWOsTNMQpJMfwZXXx0GySCMdpc1s90Jw1b1S/58P4c7y+qbr7ddXwkGBAMbDMp87+BgGTZdZatV97zNu/TuaLZ4MGu5glhlNa07xwfxQW8jnVgh744GIRmOUiCPhkkYjMpeSJnDWWdynrbttc0vAWWWMi4Qpc/Wrh6CAcHABgMBcrHvtbGrpnmr8lXdK7L7Llybrc/4ID5ofVDOOwHktFM7w3QVXL2inM3w/UM3T7dtr21+gMyLZcsJShLsm9v5QYXvtbHppnmr8lXd6wJ8i/owW58B8nJsvysxpa0Pir/OBeS77rprQX/2tBOGA9mu3g2jwTDslK5mveHb9Ph8R7at4rZxbqWdbktl28ml4Df5BqNRfsva3EuSon7a/ljHHV8fxUmHbL/Hvsn1rE/JcGeyYh4OB0HbyG3Zp3nGdZv++L6WlhlrSzDoTzB49dVXw9mzZ0u/65d7kscGorbBoNz3ymxafDWz3eFOkS0fhGI7HNdZ6KuuPWPj6g9xouHbF5+wZafbEJ9Pd+Om4oMtdxAOCtsc52nkw76OJBTFG3wQH/ST5lmBfOTIkZAsDsgWXlXnznGmHDAJSQp2dQj9flnKGadIHU7v2fby+aLzaj7X9s6wYGs9ls++71Zoj68rTNPdAHtP29CgosC2fdN7mreqr7ac6zdAzoHLQqyr56+88kq46qqrwqlTp6b6Ltfk3ssvv5y71xbIPjBk6RKbFhtWe55MoIttLdZl743rLPVVa+N6fhAOJj4XYZybcKd9qGhjvAM3KVPqg7YO2+a4z/rMpeXVT+vjDUDuD5BX5YMbBmTjvAdxdp7OTFMAKwAjrGTmPjVrlXwaJLyD52bN45WBOmdtQHJOPjWRsP32eWNQyCA/zlvVV+nPOADFcrb++PwEg/4EA5koXLhwYQrKCmO55ycTiwXytP3oKnICOO8v6hOFdjht45k/mntlPpdez/tzMfRtv029U30198razPmsQlfrN+Wl7oL+Zc8X/U/6iw/ig9nEN9rFBgM5zqIXC+SiIJA5WH7LrOq6dWB7LmVcOufc8kzjICDXKycP2ldTRoMkwWAKYB5oXUxbKFfBWPq+dCCPbUm3gOPktqHtehtPv6rSCbKpI2f7xp/KrufqNfVMAdj7mcnbqO6K8gC5l77V1N+X7YMbBmSz1ZtzLHE4dfjiGWw2w87yTW9Zm/oN3LJZjnHs3H1/3abtuXf08UpXwZs+k52Vl/RVViWFZbKgxuy8X7NzDRgaEGSbumhlrPlWBWSxffGT7J0Itc96252srqd8VesQ3yjyuaZb1lpPgV+VwruszSo/LbqX+WbRill0wwfxwYwdMTZvGJAHIb4MFbeUc1vSqdPrSyjWUTNIpeKYLTb/opRu0022jwu3rLWNeCwMVLlgYF58Sevzzh2DT9rmYBiGukIW4Jf2taLMeKJAMOhnMBDgyu/k1v0O+WKBXGDTxvbsy1aTl7hSWy6zw2jjxb7q7D/nt4n53lryZf2aXqG7epzP5XeiXN7CNl0eV1/+uXXSr/0rjjf4ID7YcyA7eFauQqvyco9g0N9goKvgquPigIyv+KC5qDQ+iA96W+rZCpng4Adw1jTBgGAwq+1QbjFxCB/EB70vAeTcKnsxjuZF7mKaYEAw6KJdblOf8EF80Ns7QAbIG/1WZNW27ibfk2DvnZ10tybcABkge58EyFsKZP5x9M0NBrP+4+g+OJBeLsDxQXzQ+xhA3lIg7+3thUceeSQ89NBDfDZMAxlXGV/v7KSXC9i2+uKDmxt7ZvVBgLylQG4bPMjfrWDOeDAe2MDm2cBcQP7KV76yoH9cYvOExVkYU2wAG8AGsIE2NgCQWSGztYkNYAPYADbQARsAyB0YhDYzKPIy48YGsAFsYDNtACADZGbG2AA2gA1gAx2wAYDcgUFYx2xX3vCUP7uQv4Xks1kayLjylnX3V1D44Gb5nY2js/ogQN5SIPM3kPwN5DomgrSZTRTwQXzQ+wNA3lIg8ytBmxsM5BfIZHy9s5POYNgFLfBBfNDbIUAGyPx05qXNCwwAuVvw9YFX0gB58/zO/hzvLD4IkAEyQDyki5sAABzkSURBVAbIrKbXEAcAMkD2EzWAvAZH9IOwjjTBgGCwDrujzWzljg/ig94fAHIK5N0wGo7CbiWcd8NokIQkGX8Gdfkzx/OiLzO9OxqEZLhTu+IhGBAMlmmH3ap7JwzVb8fHwWi31kfqn2EcE9JYsBtGo3q/s3Xig/igtQc533ogR4CNUiCPhkkodNTdURgkSRjuGMjujsLIpqdgLkFgEEa7psxUngXf2x2FYcNAQzAgGPhgsLlp74tjQDeYuFZqov62M0wn6rn40MDX8UF80NvX1gM5FaTSoeIsuK2zHRz4ILBg+BY5/O5uzSo/6wPBoD/B4NVXXw1nz54t/a5f7kmeeV8o8cFhc9IFvphOsodhp8iPVnQNH8QHvY8BZAGnbjkNChy0gePuDM1WdjrrHs/AdZtMZ+LjlXbc9jZtmeuD0Si/sjb3pFw2MYhBZjgchCSRuvJBZ7pPGYzFCAgG/QkGr7zySrjqqqvCqVOnctAVAMs1uffyyy/n7sn4emff3nTeN6IOdqLt77t0zgfVb8d5RnF1LL6Z213LlbF+m/khPogPep8EyHWzYXGsxt8XW0e25+KELr0zHDuwXM8cNt1Cn2x15+8dpE6u2+DxXhYEXP2T5yq+TjDoTzAQ8F64cGEKygpjuWdXx3IOkDPwTfle6htNgez8x/nt5H2NdJfNwjrz6bzfZv3CB/FBgDwBVeYYXpRcOoWgOlpJmfGWd1z5WmDq+UGITmlW0rJ6lpXzFPBNAChoW1a+cZVs8qXP5NKFfcr6TzDoVzDwUK6CMUDO7Dz6svONCZDVP/19k059sMBv/QTbpiv9NusbPogP5ljDS12Zc3hhsrSdSRfkzzmf5C1x8lw+U49cz63AfTDITwYaATnXlu1T1i7BoH/BwEJZtqmLVsaSByBndl4K5JyPGJ/zk9tcPltvuzKZ32Z14IP4YMaZaBdzbVkfOvT1cP78+UYfacg33pt00Utf+pa13FOgps5bAuR0Bu2+Z5o4v656D0L9lrUCuiIglPaJYKDA6vPx4sWLQT5VzyDBvjf+lfpBZpuL73eRr2Q+d3DgJt2pv1s/LvNbzSN9t23Iuam/BOoAuZ9AFr9blg/OCeRDjWAs0O41kCVgpE5ltq4UwmNnTrerB8MwnKyQD8LkxarCl7rGW9ZS9xj48cWQqpe6ygKADwgxwBT1SYMdwaC/waAKxHoPIFvAR0DGr5TEh60fjfMZH0yGw8oXK+P3xhbA3v98vChojxcrKyeUasd9Ps7igwB56bNzGxganJfMphWkizoCZIC8KFuingZ+XRBn8EF80PsOQC5wFC/SJqYJBgSDTbTrPj0TPogPensFyAB547eO+rztNWvfJdh7Zyc920p2WboBZIDsbWtWIN9www0hOXToa9vzHfKGgZt/HH1zg4G8cCLj652ddLeAjA/ig94n5wLyl7/8ZYDcU1Dv7e2FRx55JDz00EN8NkwDGVcZX+/spLsFZHxwc2PPrD4IkHsKVIJrt4Ir48F4YAPYwLw2AJABMispbAAbwAawgQ7YAEDuwCDMO6uiPDNzbAAbwAb6bwMAGSAzM8YGsAFsABvogA0A5A4MAjPb/s9sGUPGEBvABua1AYC8pUCWNzzlzy7kbyH5bJYGMq68Zd19OOCDm+V3No7O6oMAeUuBzN9A8jeQ887mKT8f9PFBfND7EEDeUiDzK0GbGwzk171kfL2zk54PoIvWDx/EB71NAWSAzE9njv8N4Vl/prKL5QByt+DrA6+kATJA9nYBkAEyQAbIrKbXEAcAMkBeKJDvvPNOfjpzDY7sB3GWNMGAYDCL3VBmcStvfBAf9P406wr5+uuvDwlAnsU5d8NoOAq7hSD3/5B6EoY7s7RRX4ZgQDDwwWDz02P/Gu4U7gjsjgYhSQZhtFvvP4vQCh/EB70dAeRCMC7HIVOHH45SII+GSRiM/L/IIwHDBISdYUiSYdhZQh8JBgQDHww2Px39azAwPjbxLZ0MF91bTjzAB/FB73MAeeKQy3E6L/hBCtmyla8D8oFPL66PBIP+BINXX301nD17tvS7frkneezLZTK+U7a3alvvXHvRn4bDwfRkWPxyOMxPiJfcf3wQH/Q+CpCX7HR5wXfCcCDb1bthNCha+ToAS5BI80cQ7wyTkCTjz3jbLW6zTV8vymv7QjDoTzB45ZVXwlVXXRVOnTqVg64AWK7JvZdffjl3DyAXTV7Vv+Ro/U/8UVbGer/c3w7Gk2SBerZ7JeUzH9SvmfDB/viYncwWna/KBwHySoFcFCTsNQkImWMnJd91aVDIf9flg4zWmw8yCmWA3K9gceHChSkoK4zlng8iAFnt3x4zXxBYKjgPdkdhkE58s/vqJ/For8u5/bopwnj666fidm29+CA+aO1BzgFy54A8/g5LgkRuFn8QdLs7rpLz33XlAow803hrvCivDDzBoF/BQIBroVwFY8kLkC0Q9dyAdQLhg5D5jrlf6kMuT5GfakzBB6cmin7i2Lf0sn0QIKvzdOKYd3bZjp7MvHOOr1ts40CTfv9l3hytyjt+ToDcPyBbKMs2ddHKWAMcQFYI26P1r7EP7ejqWPKZ+6U+ZPKIL+XymbZy152/4oO9BrVCeRk+CJA7AWJ1ZOfsNkDY75NTZ9cVspSx34eNV8f63XMur7bDClnB1cfjxYsXg3yq+g6QM1vPtgWdf41XsJNJb2N/U9+TNkq2rEv9NesXk+J+TorF75blgwC500A+COlLW5MXwcbfLw+GYTj+043ciyPy/XNF3iwwAeQqmG3CPYCcgS+zewfkqZcr7f0I2vQrH+NvuVX0JHZIuezdj/jddFn5rF8Aub9AbhIjZvFBgDxxqsxRMgfe3GsEA4LBNth5l58RH8QHvX0CZIBcufXZZCZInu4Flllm5z44kF7uhBwgd89vFhnLZvFBgAyQATL/uAQ/IrKGOACQAbKf9ALkNTiiH4R1pPnH0Tc3GMgLJzK+67Ar2my+qsYH8UHvLwB5S4G8t7cXHnnkkfDQQw/x2TANZFxlfL2zk24Oy1VohQ9ubuyZ1QcB8pYCeRUBhza6BQDGg/HABrptAwAZILOSwgawAWwAG+iADQDkDgwCs9Zuz1oZH8YHG8AGVmEDABkgMzPGBrABbAAb6IANAOQODMIqZl60wQwfG8AGsIFu2wBABsjMjLEBbAAbwAY6YAMAuQODwKy127NWxofxwQawgVXYAEAGyMyMsQFsABvABjpgAwC5A4OwipkXbTDDxwawAWyg2zYAkAHyVs+Mjx8/Ht75zneGt771raUfuX/77bdvtU4E8m4HcsZnM8YHIAPkrQXNF7/4xfDZz342vPjii2F/f7/08+STT4bPfOYz4Z577tlarQj4mxHwGcdujyNABshbCxlZ+Qpsq2Cs9wTakp+A1u2AxvgwPn22AYAMkLcWMrJNrcBtcpT8xc6+E4ZJEpLJZxBGu7MExt0wGiQhGYzC7sFuGI12Storq1v6MWvbZXVyvXjM0QVdFm8DABkgtwz6izfCdTn2YoGcgXB3NBhDtaVWu6MwHO2Gg51hCvfhTsvyBwB5XbZEu21tlfxFNgOQATJArvj+2K6cq1fIGZAP1gZGgFwU5LgG/PpiAwAZIAPkpQI5QnI4HIQkGYYdsbfdURhMtrfH1xTio7g6lu3vgayWx/a5MzRb4kOzlW3qGoxGuS3r0jLY/ERX1Zcj0O6CDQBkgtPWBqfVbFkLkC1c3Sp2ZzgGb8yXKGzTbWuFtQ2Wtnwso1vb6VZ54XfItoyti/MuBGH6gB2qDQBkgAyQF7JCNitYXQmntuVgaFa0k5fAUgi7fLpi1pfDxt8rxzLj7XGpK30BTAOaq6OoDPa+tfauQZ+j+kv3jgCZALW1AWpZK+R8wHOQTIFct/KVQGHK5crIm9gNgFxWBnvfWnvP22X3YET/DsJcQL7jjjvC+fPnG32kIQTHCbpkA/J3xXU/CqIvdcnfK5f/HbKB5xTw/D1J2y1stYmifGPwykpXV8IpaPUFslhX4ZZ1aRltj2OXbJG+YI9iA7MC+brrrgsJQMaI+hxI5Je35Be46n4cRKAt+eSXvYqf18PU2kXBvRSqZou7dst6/PfJ8iLYYBiGukIW+Jtt6fxLXRVlpiYNtr+cF48xuqDL8m0AIBOcSiCzfOPrgoPLb1S/4x3vKP0da9nWlvvym9dd6C992A67ZJy3c5wBMkAGNB2wgckLXpM/h8pW0ATn7QzOjPv2jTtA7kAwxvG2z/EYc8YcG8AGvA30CMjmO7H0uzT5vd+eDmjuxZyePkNftaff7IhgA9hAR22gH0AevwSjb5Oms4rdURi1/q3fRcOv4IWdjg60n4mRXrQtUB82hQ1gA/PZwFxA/tKXvtToT57kT6OkodkGK66MczDuDPQA8mxjOp/R0ib6YQPYwCbaQPeBnK6Oi35IwRik+zOSDN5jYO5kvx0s9+JPDMaXZuzvBbf7jWGpO3vxRn/ysPj3g2M/st8zdiAv7X9+mz57LvPsnZmc0KdNDBA8E3aNDazOBvoBZP1RhEL4RDBOYJXCLf/DCZMfVRj/zeYEwmlaYe8g2eg3hl2ZXP/svdjHSbv2V5jS8yQU9l/6p79tnKt7dQaCM6I1NoANYAOrsYF+ADn328BOmIIVtKxSI+AsFKVcRdqtUtM/Q6n9wQZfX/6HGpLJD/37fCZd1f9xnzKQu2cH0jN+DYKOBFhsABvong10H8gHNd8hVwGtCsApzKrBGA3W5PFlfP25vki/7Updz8UITJ25MtFAsglFTOsW+2QVDYgBMTaADWADG2cDPQByturMAWnylrXATVfE+m/NlmxDWxAWwrXlbwz7+mSLWbfXU9AqhA2AS9qdPFsBoGViIFBmpdy9GS2rDMYEG8AGFmUD/QCyQCwFlXmJSsE3dU8hKEZSBcKC+76N2i3rgzB5iSvNa17Cyv3mcE0/cu2a/o+/846/4qSTDIx/UcZPPdgSNoANdMkG+gPkdGWJ8XTJeOgL9ogNYAPYwOJsYFYgX3vttSFZzd8hVz8svwFcrQ/Ogj7YADaADfTDBnoPZAytH4bGODFO2AA2gA1U2wBAZit8495UxOmrnR590Acb6KYNAGSADJCxAWwAG8AGOmADALkDg8BstZuzVcaFccEGsIFV2kBngXzx4sVw7ty5sLe3xwcNsAFsABvABnpjA88991z4xS9+0XrXobNAlofhPxRAARRAARToowIC5bar684CWVbG/IcCKIACKIACfVTg2WefBch9HDj6jAIogAIosFkKAOTNGk+eBgVQAAVQoKcKAOSeDhzdRgEUQAEU2CwFAPJmjSdPgwIogAIo0FMFAHJPB45uowAKoAAKbJYCKwfy7bffHs6fP9/oI69zt3kFnLesN8s4eRoUQAEU2CYFAPI2jTbPigIogAIo0FkFAHJnh4aOoQAKoAAKbJMCAHmbRptnRQEUQAEU6KwCALmzQ0PHUAAFUAAFtkkBgLxNo82zogAKoAAKdFYBgNzZoaFjKIACKIAC26QAQN6m0eZZUQAFUAAFOqsAQO7s0NAxFEABFECBbVIAIG/TaPOsKIACKIACnVUAIHd2aOgYCqAACqDANikAkLdptHlWFEABFECBzioAkDs7NHQMBVAABVBgmxQAyNs02jwrCqAACqBAZxUAyJ0dGjqGAiiAAiiwTQoA5G0abZ4VBVAABVCgswoA5M4ODR1DARRAARTYJgUA8jaNNs+KAiiAAijQWQUAcmeHho6hAAqgAApskwIAeZtGm2dFARRAARTorAIAubNDQ8dQAAVQAAW2SQGAvE2jzbOiAAqgAAp0VgGA3NmhoWMogAIogALbpABA3qbR5llRAAVQAAU6qwBA7uzQ0DEUQAEUQIFtUgAgb9No86wogAIogAKdVQAgd3Zo6BgKoAAKoMA2KQCQt2m0eVYUQAEUQIHOKgCQOzs0dAwFUAAFUGCbFADI2zTaPCsKoAAKoEBnFQDInR0aOoYCKIACKLBNCgDkbRptnhUFUAAFUKCzCgDkzg4NHUMBFEABFNgmBQDyNo02z4oCKIACKNBZBQByZ4eGjqEACqAACmyTAgB5m0abZ0UBFEABFOisAgC5s0NDx1AABVAABbZJgZUD+dChr4bz5883+jzzzDPh4OCg8Wdvb2+bxo5nRQEUQAEU2CAF1gDkQ41gLNAGyBtkaTwKCqAACqBApQIAuVIebqIACqAACqDAahQAyKvRmVZQAAVQAAVQoFIBgFwpDzdRAAVQAAVQYDUKrAHIvNS1mqGlFRRAARRAgT4psHIg33777bzU1ScLoa8ogAIogAIrUQAgr0RmGkEBFEABFECBagUAcrU+3EUBFEABFECBlSgAkFciM42gAAqgAAqgQLUCKwfyF7/4Rb5Drh4T7qIACqAACmyhAqsE8jXXXBMSgLyFVsYjowAKoAAK1CoAkGslIgMKoAAKoAAKLF8BgLx8jWkBBVAABVAABWoVAMi1EpEBBVAABVAABZavAEBevsa0gAIogAIogAK1CgDkWonIgAIogAIogALLV2DlQOanM5c/qLSAAiiAAijQPwVWCeRrr702JAC5f0ZCj1EABVAABZavAEBevsa0gAIogAIogAK1CgDkWonIgAIogAIogALLVwAgL19jWkABFEABFECBWgUAcq1EZEABFEABFECB5SsAkJevMS2gAAqgAAqgQK0CKwcy/7hE7ZiQAQVQAAVQYAsVWCWQl/6vPZ07d24Lh5BHRgEUQAEU2AQFnn/++XBwcNDq88wzz4T9/f30c/78+cb/vPHSgfyrX/0qfOITnwhHjx7lgwbYADaADWADvbEBYZcwbGOA3PZByN9uJoZe6IUNYAPYQLdsoLMrZAylW4bCeDAe2AA2gA0s1wYAcss9fgxyuQaJvuiLDWAD22oDABkgt/6eY1udhecGFNgANrBMGwDIABkgYwPYADaADXTABgByBwZhmTMu6mZGjw1gA9hAP2wAIANkZsbYADaADWADHbABgNyBQWD22o/ZK+PEOGED2MAybQAgA2RmxtgANoANYAMdsAGA3IFBWOaMi7qZ0WMD2AA20A8bAMgAmZkxNoANYAPYQAdsACB3YBCYvfZj9so4MU7YADawTBsAyACZmTE2gA1gA9hAB2wAIHdgEJY546JuZvTYADaADfTDBgAyQGZmjA1gA9gANtABG1gpkKUxPmiADWAD2AA2gA0U28D+/n6Qz/nz5xt/rrnmmpB89JOfb1xAG+EYxUYHdMAGsAFsABsos4GlArlN5eRtPjNCK7TCBrABbGC7baD1ChmD2W6DYfwZf2wAG8AGlmMDALnF/j5GuBwjRFd0xQawAWzgfADIALnx+wM4DEETG8AGsIHl2QBABsgAGRvABrABbKADNpAC+T/89ecYjA4MBjPP5c080RZtsQFsoOs2kAL50KFDABkgYwPYADaADWADa7SBFMjyv67PHOgfs1tsABvABrCBTbYBgLzG2dAmGxbPRuDEBrABbKCdDQBkgMzuCDaADWAD2EAHbAAgd2AQmEW2m0WiF3q1tYG9vb3w+OOPhzNnzoTTp0/zGWvw4x//OIg2bfWU/GeePBf+5JafhNfe8MOQXP1/+Yw1eMvnzqbazKIpQAbIMznjLMZGGUC6DhsQ4AiIn3vuufCb3/wmXLp0ic+lS6kWL7zwQqpNWygLjAXE1z/4Qjh3EU3VpkSLY4+8FF57/Q9ngjJABsgAGRvYaBuQVeCLL74IhEsmIs8++2y6e9BmsvSWW8+Gv3pkD01LNL3u5PPp7kEbTSUvQCYYb3QwbusQ5N+8VbxsUf/6178GHiXwEG1kB6GN7csWNSvj8p2Wcxd/na6S22gqeQEyQG7liG0NjPybB7i+jakAWbcUORZDRDRqM64CZLQs1lJ1EY3aaCp5ATJAbm00bY2M/EB5nTYAkKvBIQAByPUaKWibHgEycAWu2AA24GwAINfDBiDXa9QUxJoPIDtHXOesnLZZFWID3bCB+YH8RDh2eRKSZPy5/Fh4ouT7WA3GizueCIeTy8OxJxYPDNvHdQL5xOEkJIdPbNwWOEAGyKyOsAFswNnAXEB+4li4PEnC4RMGiE8cC8dseqlw3nAgi76XHw6HL1/mpGM1GtoJjpwDZOeIrFC6sUJhHBiHddrA7ECOK+McjJcKXwP9STurgcm6VshPHLs8XH7siaBHD7XFpFejoe8rQAbIrI6wAWzA2cDMQE5Xx4fDiQkcp4GZbrfqVvZk23UMgGOHJ9vcAp0sYOe3wCfAH6/G49a4tpuHSVV7hw9fHpJEy033NWt/+t56gCw6jFfG6UrZfxUwg04n4o6GaBg1F/3M1w3jMVqWjlZjgOwccZ2zctpmVYgNdMMG5gJy4++LLTjHEFBAnxAwKygjZPKAFkDa8pfCpROHDVCKtnNt/tjedJ3T4LXAsOdrAXIOwgbO6QRoFp2SkOh4pZMb1c1q5TWx9+bX0Wo6C5CvvfbakMjfPhE8uhE8GAfGARtYrA3MBeQJSH0gH6dT2OoKrAwAJuinoFA4mzrT61rP+JgC3ZQVUDVqz9Rbsbq38FgHkP02taQnL3fNq9OlS0FWwXH3wWm4RB2tpgCZFTITK2wAG3A2MDOQL8VV2mRL2cMtBw27wvMAMOlcGQPOsut25ZzLU9Weqdf3uSS9eiCLJm4CkqbHk5Xcs5rnKbtudUqf0Y6d0V/u5epYrI4A2Tkfq4vFri7QEz37bgOzAzlbkeagrG9Zy2q10RapBUIExfT2cgRU8fXxyrtxewZgJQC24JDzlQPZPsukjxais+ik3xt76Fr9x2PaaNza62h1ZYUMnFkdYQPYgLOBuYA8WVGZ1ZwG8/EKOn0JK/enOw4AU6u3CF/9u+YJ7NOVm2lnass6Qqq+vfYgWTWQZTt5evJxKX3berJtneqW6dFEp/hiWywzyT/evk51SzVdno4A2Tlf32fz9J8VKTawWBuYG8iTFVx70NkA3eXzVQN58Vr4SdD6x4oVMnBmdYQNYAPOBuRfMuJfeyoHlGjTFsjybyF361976haQ5V97AsjOEVlpLHalgZ7o2UcbePzxx4P8m7+LX5WVQ65Pbb3wwgtB/s3oNmP7J7f8JFx38gU0Ldk9Ofa/Xgpv+dzZVpqK/vxrT0C8tdG0cVzyAvF128De3l767/0KeFgpZ5MI0UImKrKDIBq1GaczT+4FWSUfe+Sljq2Us+dbx6RIdg2uO/l8qo1o1EZTyQuQAXJro2lrZOQHyuu2AQHO97///fDggw+GkydP8jl5Mjz88MPh1KlTrWGsYynAecstp0Pyzm+H5B1/y+cdfxte++7vhD/5q/8TZoGx6JoCWX4dREXmSPDEBrABbAAbwAZWbwPpL3UB5NULj7GjOTaADWAD2IC1gQmQn376aVbJbF9jA9gANoANYANrsAFhcArk6667Lv1+xZKac2Zu2AA2gA1gA9jAamxAvs9PgXzDDTeE+++/n1nRGmZFGPtqjB2d0RkbwAa6bAPC4Ouvvz4kR44cCQLln//850AZKGMD2AA2gA1gAyu0AWGvMFhYnBw9ejRN3HbbbQzCCgehy7M1+sZqAhvABrCB1diAsFdWx8LiFMhCZvkuWW6wUl7NIGDs6IwNYAPYwPbagLBWmCvfHd94440RyDfddFOakCWzQFlIfeLEifDoo4+Gp556ilUzq2ZsABvABrABbGABNiBMlRe4hLHCWmGusFdWx8LidIUsdNbvkiWD/GLIhz70ofCBD3wg/Vx99dXh/e9//1yf973vfWEZn/e+971h0Z/3vOc9YRmfd7/73aEvn3e9612BDxpgA8uxgXXHgWXEt7Z1No3by+CG1Dkv09qUF4YKTz/4wQ+mH1kVK4yFvcJgAfL/Bz71smu/5cC+AAAAAElFTkSuQmCC;textShadow=0;labelBorderColor=none;shadow=1;" parent="m1atIyZ4gX1CUayxEhNT-13" vertex="1">
          <mxGeometry x="90" y="153" width="484" height="313" as="geometry" />
        </mxCell>
        <mxCell id="B0WQdpecp1-6Koi1hBXD-2" value="" style="shape=image;verticalLabelPosition=bottom;labelBackgroundColor=default;verticalAlign=top;aspect=fixed;imageAspect=0;image=data:image/png,iVBORw0KGgoAAAANSUhEUgAAAcsAAADmCAYAAAC6R64bAAAgAElEQVR4Ae2dzW7cyJJG+VaWHseA6h28ns3AgKCel/CyN4JWFuBHMAQ0tJCB3vW10Z6+041rA/eqDSEHQTLJIIusJBlZ/MtjQFAVi8yfL+KLw8wqq7K//vrL8VNr8Mcff7jPnz+7f/zjH/wsqIHEQGJBbta5iRZoQQ4slwMZ4jfFlyL973//2z0/P/OzoAYSA4kF+dnMT/RAD3JgmRyoYMmKql5JAsp13Ciwuq9z0mvBinuZQgmg0L2CpZjwX//6l/v27VvSP1KUgOV6YJl6PrbnLx5lxU3hBt7z50AFS4FE25gpPgeW6wCl3LCQk903rqILxXL+YonmaWsOLFsraWAJLNd+kwgs0y7aQHuZ+ANLYLnabWdWlqwsAcMyYED3Y92BJbAElq0cYGV5XCgonmiSeg4Ay1ahnL4Ne+uusit32/nfLeS1C3f9GGmL8/HaXej2bq9clmUuu7h2j+3XOsczchx9bUq/0meMPjraYGXJyjL1As3813OTMgGWP7vXUpirn1fu7UO3qb89vHWvshOvt0B1dEdvvf6bjHVc/+uE5SnYymuZu7odCcAOOI37FPCtuzojKC0f8Pn5deay1z8HPrCmcmNIng05J5TPva+rsfSeU3tMcpQiup4iSizSiMVEWNYAenj7ymWv3rqHASY/guHZrxlXhGR824RlxFXrUIg+Pp5tRemhPWllKVB79dq9flXnaHfejc+N7nZqiE1/fdxYgGUaxRkIryvOZlh+m7B6m15UxhamcUVIxhUNlvnWZbECv7i+bm7Dqteyauu2XD1el1uqWeYurh/d83OxcqxW8le35TEBZPO1+nwNz0d3fVHvBPgV6O1VfSzL2/Qr067zy7H5beTG+PWqtm8Ovu1xv6fAUm7eXr19cP53f66Nz43+tsbmZfv8cWMBlusqokAtjXhEhmVh+tevX7kse+1+boC0LAhvX1dbuFLU6gL04N6+qgv465+loOgiUj7+WbZ2i/P09fnWm98arrbg9PXtAtX9PA4sC4h5MD1eX7iseo+xBZ7bqyYUPbjy9yH9e6Cta3KAeiCeeq0AXwHRPlDp6/vO1+fIYwXIxvuZxWsVfBtz6Ou///h4WEoOlSvKfIXZ2vHIt1J97rxVW/TtPAnl4jdXvMXQzleVsz15HiNPgWUaxRkIryvOZlg2t2Gl6GT5nX0BQV2Eiteq95J+FmgKUKXAFMVJw6/3er/l2/seUrvP0HZcE5pRYCkAabyfp2DTWpXlK8bGatHDQ13TgKO8PvC1vC8PXN9u+dt/KCi/wSjB23u+6q/jHFmlFjcG6rx8O7f9vDWGwJbvaFg2AKnAmedYkX/FTdi3fOWZVe9n65wZnou+reZ786fyXOea7lM/1ud0PwaW6yqiQC2NeEyEZX1HXQNPjN02vX6uH7fOzcHnwakLhL5GPy7Okbv0qmDl8PXj8oA8vqZeyep+6sfzwLILYG2w6Of6cQRYNoAnq8l9wLK99ZrfyPldhgZIJd46N9TjIbnYcU6di6qtCtI+H7+5bxHyFFimUZyB8LriPBGWyvyND+mcKhQnXusoPt0rS91vsQLIYdm4Xq8o2n3WUOyDZhRYlu8z9m/D+vcj9UprIhAbq8w2SHu2VfV/+cjB6bd0e85v9CHj9CvJZ/fcAO+pOei5DnssseiL0/FxibW/WdK/y5swyRG/K3EEMZUnjVzS+XL6nEGwbLQ9PU+B5bqKKFBLIx7rgOWIbdhqq1YXHrlb94UwP+6hqgpcA+q6CDYfx4Hls3tW25ynP+CTueI9vtOgqT6Qc7Rle/q69geECoAXUCz+b+aVu/Iry2rrtIZN5/ZqDkh/jgdtG9Rdz4dBctKnYXUOVLFWN1T5SrLeichXnVG3Yf3OSDvn1HM9RkOeAss0ijMQXlecVwJLAZYUFV+AfVFThabcNis+PFScV23BlrDNi3/jvw3o65tQPF6ZFK9Ph+U4EHgg8LtfN4lFX5zax2VlV91IVbAs35v0W7FqC/TV21Mf8AnlYvsDPv7mzOdx3/MC3tY8BZbrKqJALY14TIDlMOi0i5n9+XjwTekTWPbDa26wj4HllFhv9RpgmUZxBsLrijOwVKsQKZ7AEliuHaLAcl1FFKilEQ9gCSz5Q+qtHACWaRQ/IEecx+TAhmA5z/YvK0tWlsCSIjqmiHJuGvkCLFurCmAJLIFlGsUPyBHnMTmQCRz4aWow9wdZ6K8b0ORlMy/RAz3IgeVyIIclxbq7WKMLupAD5AA5QA7ITQqwDPx9UoyCUcgBcoAcSDsHgCWgXO0nYSlOaRcn4k/815QDwBJYAktygBwgB8iBQA4Ay4BAa7qzYSzcaZMD5AA5sEwOAEtgyR0lOUAOkAPkQCAHgGVAIO7ilrmL07r/3//96f73jz/cH/xUGogeoovWicfL5yox2G8MgCWwXH3BFUj+5z//cT9+/OCn1ED0EF0ozvstzsR2XbEFlsBy9QVXoCCgHPOXNvZ+rugBLNdVTIHbvuMBLIElsPxre3/yC1juuzAD3vXFF1gCS2AJLFefA8BjffBILSbAEliuvlCyDXu88mVlCTxSg9XS8wWWwLIFywf37s0b90b9vHtYtjABS2C5dKGk/2VrwBr0B5bAsgOWP7n730pz/Hbvfnrzzj0sqBOwBJZrKJaMIW1gAssFIbBO88nKUsHyuf18fsMAS2C5Tq/M7wV0WE5zYAksT68sH965N+8eynPa4NTPf3P3P9Xbt/XWbffxh3f1ue323737yb15864aF7AElkBiOUigfaE9sASWFZQKUwgAFcgaW7AajpJA6nkDqt7YBSh/uv+t1Yd/vdVG3t4b1z4fWAJLCrb2DI+XyAdgCSxbIFMAFG3y9yz9tmzrNQ3L/LwW6E693ylwraDc135RFIAlsFyiONInUNY5ACyB5WlYPherw2Jb9QQsSx1/u5ct1DcuP78Plo3j0j6wHPsXh/ivIxRyXch5fP58AJbA8jQsc7B5mGlwPrvnfHXoX6uTVYBZbKX2bMPKdT/du9+CK9eiTVaWrCyBQe0vtFhGC2AJLDtgqd+zbMFQb5++e1d/clYfP3qfs26vWKEWEM23YX96596xshz9d29ZWS5TMAFVuroDS2DZguX6zMDKkpUlkFqfL1OLCbAElsCSvw27+hxIrTAz3/XdHABLYLn6QsnKkpUl8FgfPFKLCbAElpuAJV/+3Pzia778GXikBqul5wssgeXqYfnnn3/mX3T8z3/+0/FTaCCrbdFl6QJC/0A7lRyIC8vbK5dlWflz5W5PgujWXWUX7voxYrI9XruL2G2enEN77I/u+sLPP3PZxbV7HHV9uz2ep2LEZea583xNqh6doZ5Suxo3o/FgmYNKAfLx2l3fnir2OwtuPv/MXek5BzU4pQ+vLQOQRHTfe74mV492Vk9XCOp4sJS7uFErqT0Ft7hDb4ByhcEGPomAMJh7CeRrcvVoT/V0nT6NB8tnCVbmLq4fG0vXvECXd7HFFq1ffbaC23mOiNbcKqqB1HX8VJt61Veed11vG+tx316prdSr23I+xTVXVxcuy/wcyqC272I7itXQNo/P6yhsqhAcny9jmjK/dSYogD9DXHaRr13+11qJB/Zcj57ds6qZF9fXjbe1uutCSDOtH4/btSciLEXcOhg11MrC7d+bvL0qgaqP68fP7rk6p2hPg6yYQN9x3Y48VoDME8u/R1q8lnkQ5u9ttACYA++4veOxlEk7eFU9sE0PPNFNxufH+vzsxAi1vj6pj9utrhk0P98Ov9sm2d1z8cLW87Xlie4Y7b8e+TrweC038b6+aQ+rujBIM30tj3VeRYZlKW55x5MHUt39VB/+yQu/CmLfOfnxDoj1HdeA6Tinhozq+wiKJZyqDyr5BGxfoxKpoy8tcv44B5ZfsZ5os/c8r8Otu9KFrvd834eMszX2zmvUfDpWxkfz4ZzjHZStaLKHfM3n0LNybMehPHdX9UjmpOvAEI+P0aytIc/deWD5/OzyOx2BYh4gX+h1QVYFvO+cscd1wnRcOwiWjevkztRDR433KHGKO1h/l3cElqFt9p5X6CmrWtG1Wt32nt8eq3ree42ODY+PYngU8y1rtJ98LVZUXTstzfjsrh6Jj/tgGfD4UM327YFmfgyZazxY3l6r/wZSmLEo6lKou+4AVQHPIdd1jm5HT67v+HGbFcAaCaTPk3bVc1l1+STMrxkCy3o1WvUnxdV/GnZom73n+a3eK3d1oW48es9X88mLvHree43Wl8dDzLPpcyQP9NsUG87Xxg2kv6lJoh7VNwkFAMtaNcDjnZp57fjduWsUD5Yl8JpbrWXRzaHjtyCz8v03VcBLo15UW5/+HA+y+toaRnJ9+/ipNj30fJt9zwsQ5/O4EDj581ptdyVUe54euuq93Oxkm319y5jL19R7l9Ux0eFku3rsp/oo49U1N451GmjTwNxyvpawL+qNuoGs8rRZH6r37+X19rzbbwv1nuNrR7vu9B3Xvmv36+uKv7bv+Qm/Kg2aH/DpuUadf/QhxUo3akCfpyPCEpH7ROY4uUEOkAPkwLZzIBosqxWlWu3JMRJk2wlC/PYXvz6v+uPEfH8xJ6b2mEaDJcGwBwMN0ZAcIAfIgXXmALBkr57VPzlADpAD5EAgB8yw/K///h/HDxqkmANbXQGkGCvmTI2SHLB4NgosHf9QIDEFrMazmNZ6rYydfyiQmgJWzwLL1DKG+UZRwGo8K/As1wPLKClAIxtTwOpZYLmxgDPcdShgNZ4FdtZrgeU6cohRzKuA1bPAct540dtOFLAazwo8y/XAcidJyDRGKWD1LLAcJTcno0ChgNV4FthZrwWWZHGKClg9CyxTzBrmbFbAajwr8CzXA0tz+GlggwpYPQssNxh0hry8AlbjWWBnvRZYLp8/jGB+BayeBZbzx4wed6CA1XhW4FmuB5Y7SECmMFoBq2eB5WjJuQAFXP6HOCzAWvJaYEkGp6gAsEwx6sx5cQWsxgOWi4eQASSmgNWzrCwTSximG0cBq/GAZZw40AoKDFXA6llgOVRpzkMBpYDVeMBSiclDFJhBAatngeUMQaKL/SlgNR6w3F9OMKN1K2D1LLBcd3wZ3UoVsBoPWK40sAxrtwpYPQssd5saTOycCliNByzPGR3aRoFjBayeBZbHmnIEBYIKWI0HLIMScwIKRFXA6llgGTUcNJaKAlbjActUMoV5rkUBq2eB5VoiyTg2pYDVeMByU+FmsDtQwOpZYLmDJGAK8ytgNR6wnD9m9Ji2AlbPAsu084fZT1TAajxgOVF4LkOBiQpYPQssJwrPZWkrYDUesEw7f5j9/ApYPQss548ZPe5AAavxgOUOkoApbEoBq2eB5abCzWDXooDVeMByLZFkHKkoYPUssEwlU5hnVAWsxgOWUcNBYygQVMDqWWAZlJgTUOBYAavxgOWxphxBgXMqYPUssDxndGh7twpYjQcsd5saTGylClg9CyxXGliGtW4FrMYDluuOL6PbnwJWzwLL/eUEM5pBAavxgOUMQaILFFAKWD0LLJWYPESBoQpYjQcshyrNeSgQRwGrZ4FlnDjQSmIKWI0HLBNLGKa7uAJWzwLLxUPIALaogNV4wHKLUWfMW1bA6llgueXoM/bFFLAaD1guFjo6TlQBq2eBZaKJw7RtCliNByxt+nM1CoxVwOpZYDlWcc5HAeec1XjAkjRCgXkVsHoWWM4bL3rbiQJW4wHLnSQC09iMAlbPAsvNhJqBrkkBq/GA5ZqiyVhSUMDqWWCZQpYwx+gKWI0HLKOHhAZR4KQCVs8Cy5Py8iIKdCtgNR6w7NaVoyhwLgWsngWW54oM7e5aAavxgOWu04PJrVABq2eB5QqDypDWr4DVeMBy/TFmhPtSwOpZYLmvfGA2MylgNR6wnClQdIMCpQJWzwJLUgkFJihgNR6wnCA6l6CAQQGrZ4GlQXwuTVcBq/GAZbq5w8yXUcDqWWC5TNzodeMKWI0HLDeeAAx/cwpYPQssNxdyBrwGBazGA5ZriCJjSEkBq2eBZUrZwlyjKWA1HrCMFgoaQoFBClg9CywHycxJKNBUwGo8YNnUk2cocG4FrJ4FlueOEO3vUgGr8YDlLtOCSa1YAatngeWKg8vQ1quA1XjAcr2xZWT7VMDqWWC5z7xgVmdWwGo8YHnmANE8CrQUsHoWWLYE5SkKDFHAajxgOURlzkGBeApYPQss48WClhJSwGo8YJlQsjDVVShg9SywXEUYGcTWFBhivO/fv7tPnz65X375xT08PET/+fXXX530MRa8Mnb+oUBqCgzx7CkvAcvUMob5RlEgZDyBmEDyy5cv7sePH+7l5SXqj7T5+++/532MBSawjJICNLIxBUKePQVKeQ1YbizgDHcdCoSMJ6u+r1+/RgVkF3A/f/6cr15DRtevA8t15BCjmFeBkGe1R7oeA8t540VvO1EgZDzZdv3777/PDkvpQ1awXebuOwYsd5KETGOUAiHP9vnFHweWo+TmZBQoFAgZT2DZtRI8xzHpyxt6yG9gSRanqEDIsyHvAMsUs4Y5mxUIGQ9YmiWmARSIqkDIs8Ayqtw0hgKFAiHjAUsyBQXWpUDIs8ByXfFiNDtRIGQ8YLmTQDON3SgQ8iyw3E2omciaFAgZD1iuKVqMBQWcC3kWWJIlKHAGBULGGw7LJ3dzeXB3hv+HKX2FjK5fl7HzDwVSUyDkWe2Rrsd8wCe1jGG+URQIGW84LOWPFdy5Q5a57HA36RO0wDJKSGlk5wqEPNsFSH0MWO48QZjeeRQIGW8cLMu/7nN3cFmWucPduL/2AyzPE2Na3ZcCIc9qMHY9Bpb7ygdmM5MCIeNNguWLbMlmLsvGbcsCy5mCTjebViDk2S5A6mPActPhZ/BLKRAy3jhYekheupuncatK+SMHwHKpLKDfLSkQ8qwGY9djYLmlaDPW1SgQMt5wWAoop0HS/zUgYLmatGAgK1Yg5NkuQOpjwHLFwWVo61UgZLzhsBy/kvSQ9L+B5XrzhJGtR4GQZzUYux4Dy/XEkpFsSIGQ8YDlhoLJUJNQIOTZLkDqY8AyiTRhkrEVCBlPvglkrm8dYWUZO7q0t0cFQp7VYOx6DCz3mBXM6ewKhIz36dMnJ9816bdKz/VbvgBavjuzy9x9x2Ts/EOB1BQIebbPL/44sEwtY5hvFAVCxvv+/Xv+PZMCs3OsMKVNgbGsYKUvb+ghv4FllBSgkY0pEPJsyDvAcmMBZ7jrUGCI8QRiskV6f3/v3r9/H/Xnw4cP7uPHj6NBKQUBWK4jhxjFvAoM8ewpYALLeeNFbztRwGq8U6Y892vAcidJyDRGKWD1LLAcJTcno0ChgNV45wbiqfaBJVmcogJWzwLLFLOGOZsVsBrvFMzO/RqwNIefBjaogNWzwHKDQWfIyytgNd65gXiqfWC5fP4wgvkVsHoWWM4fM3rcgQJDjCcf8JH/QiKfWJUP+sT+kf8yMvaTsAJRYLmDBGQKoxUY4tlTN5nAcrTkXIAC4W9dF4gJJL98+eJ+/PgR/f9bSpvy31L4ryNkIwoMUwBYDtOJs1AgqgIh48mq7+vXr9Eh2f7jBvJ/LWX1euqOuP0aK8uoqUBjG1Eg5Nm2T9rPWVluJNAMc10KhIwnW67n+GMEbVhKH7K6bBv71HNgua5cYjTzKBDy7CnPyGvAcp440cvOFAgZT2DZBtu5nktfIaPr14HlzpKR6QxSIORZ7ZGux8BykMychAJNBULGA5ZNvXiGAksrEPJsFyD1MWC5dATpf5MKhIwHLDcZVga9YwVCntVg7HoMLHecHEztfAqEjAcsz6c9LaPAFAVCnu0CpD4GLKeozjXJKxAyHrBMPkUQYGUKhDyrwdj1GFiuLKAMZxsKhIxngeXd4dLdPL0M/oCQ9NVl7r5jMnb+oUBqCoQ82+cXfxxYppYxzDeKAiHjTYLl3cFlWeYOd8NBKZ+wBZZRQkojO1cg5FkPxb7fwHLnCcL0zqNAyHijYPl04y6zzGWHu8GrSf3fUIDleWJMq/tSIOTZPkj648ByX/nAbGZSIGS8MbC8O2Quy8ZtvQLLmQJNN7tRIORZD8W+38ByN6nAROZUIGS8MbAswPfkbi4Fmgd398I27JyxpK80FAh5tg+S/jiwTCNPmGVkBULGGw9LD8g7dxi5ymQbNnJwaW6XCoQ866HY9xtY7jItmNS5FQgZbzosPTSH/waW54427e9BgZBn+yDpjwPLPWQBc5hdgZDxgOXsIaFDFDipQMizHop9v4HlSXl5EQW6FQgZT74JZK5vHWFl2R0jjqKAViDk2T5I+uPAUqvJYxQYqEDIePIdk/Jdk/pTq+d4LF8ALd+d6Q095LeMnX8okJoCIc+GvAMsU8sY5htFgZDxvn//nn/PpMDsHCtMaVNgLCtY6StkdP06sIySAjSyMQVCntUe6XoMLDcWcIa7DgWGGE8gJluk9/f37v3791F/Pnz44D5+/DgalFIEgOU6cohRzKvAEM92QdIfA5bzxovedqKA1XjegEv8BpY7SUKmMUoBq2eB5Si5ORkFCgWsxlsCkr5PYEkWp6iA1bPAMsWsYc5mBazG8+Ba4jewNIefBjaogNWzwHKDQWfIyytgNd4SkPR9Asvl84cRzK+A1bPAcv6Y0eMOFLAaz4Nrid/AcgcJyBRGK2D1LLAcLTkXoIDLP1G6BOhi9AksyeAUFQCWKUadOS+ugNV4MaA3tQ1guXj6MIAFFLB6lpXlAkGjy+0rYDXeVNDFuA5Ybj//mMF4BayeBZbjNecKFGAblhxAgY0pACw3FjCGuw8FrMaLsUKc2gYry33kILMYp4DVs6wsx+nN2SiQK2A13lTQxbgOWJLEKSpg9SywTDFrmLNZAavxYkBvahvA0hx+GtigAlbPAssNBp0hL6+A1XhTQRfjOmC5fP4wgvkVsHoWWM4fM3rcgQJW48WA3tQ2gOUOEpApjFbA6llgOVpyLkAB/igBOYACW1MAWG4tYox3FwpYjTd1VRjjOlaWu0hBJjFSAatnWVmOFJzTUUAUsBovBvSmtgEsyeEUFbB6FlimmDXM2ayA1XhTQRfjOmBpDj8NbFABq2eB5QaDzpCXV8BqvBjQm9oGsFw+fxjB/ApYPQss548ZPe5AAavxpoIuxnXAcgcJyBRGK2D1LLAcLTkXoADvWZIDKLA1BYDl1iLGeHehgNV4MVaIU9tgZbmLFGQSIxWwepaV5UjBOR0FRAGr8aaCLsZ1wJIcTlEBq2eBZYpZw5zNCliNFwN6U9sAlubw08AGFbB6FlhuMOgMeXkFrMabCroY1wHL5fOHEcyvgNWzwHL+mNHjDhSwGi8G9Ka2ASx3kIBMYbQCVs8Cy9GScwEK8J4lOYACW1MAWG4tYox3FwpYjTd1VRjjOlaWu0hBJjFSAatnWVmOFJzTUUAUsBovBvSmtgEsyeEUFbB6FlimmDXM2ayA1XhTQRfjOmBpDj8NbFABq2eB5QaDzpCXV8BqvBjQm9oGsFw+fxjB/ApYPQss548ZPe5AAavxpoIuxnXAcgcJyBRGK2D1LLAcLTkXoADvWZIDKLA1BVYBSxkEP2iQWg7EWOUt0UZqcWK+1CafAxa/mVeWls659tmhARqQA+QAObD+HACWz+sPEkYiRuQAOUAOLJsDwBJYsrolB8gBcoAcCOQAsAwIxN3csndz6I/+5AA5sIYcAJbAkjtKcoAcIAfIgUAORIHl9+/f3adPn9wvv/ziHh4e+EGD0Tnw66+/OsmjNdxBMoa0VzLUs/3U8Jh1xQxLSSyB5JcvX9yPHz/cy8sLP2gwKgckb37//fc8jwBm2qBa+kaFeraf+h27rphhKeT++vXrqOIIUPeTkDFj+fnz53yHYumCSf/pApt6tr/aFKuumGEp265///03sGQ1ac4BySPZpQBW6cJq6dhTz/YHy1h1JQosY64uaGt/yTomplKsli6Y9J8urCX/xuQr526jXsWoK8CSFeGqikOMpAZ26cLOGntguQ34jb1JiVFXgCWwBJaBj4xbCzDXbwfewBJY9vk1Mizv3CE7uLtNAUjGnLnscNeChhy/dDdPSybPk7u5zFwm45Ofyxv3tCltx2sX4w6wL9k5vh1oLRWr+LB8cjeHgG/vDrXHs8xd3jy1atF4H41deYXPL2tRXoOe3M1Nu16uYYz9Y4hRV4DlSwHFy8vMHe602AvD8unGXWatMT3duJvGGPV49/E4RlIvVWjpd/swjgnLp5tLlx1ucljeHHogmINS35QXUKqBuXAd8jfnTzfuIBAvwd6sleuvPTHqCrAsYXlzd+MuGyu3JZO0MMzWEjJ8dxo2VYykBlrbh9ZSMYwJy9wPJ+HS4/P8Rtnv0C1Zh8J+jeH5OdqIUVfOCMsyyDf1FkN9t/TiXsqVk2wvXt7cqC3P4rrD4dJlfktXnVsdeym3BcotSg+Wu4Patqy2Vjva9HdMHpZPL06urceok1Q/lgRqPT8aX4cJxDQljLvHqBKzYRZ1vBpzMdZqe/bEPI/7mjK2cr49sTzuo3vMQ0wRI6mXKrT0u31Ix4XlnTv4bctLDz/ljV6fi0dltSm+a9ezwou6Pnb7r7s+1h7sef2olsl4p/i/p31Vw+qxKE3O9HqMunJmWKr3AvM7LJ8wRRJ4wOXbFdX7g8Vr3dB6ybcB8tekvQoSXWKXAc7fc2y3qc9vn+e3RPqOq+Sp2vbX9I9PEtrPt04S3YcakyRsY5WrXjtKJt2GPNbA19ep81rahcdWtFvp3YhlTx9H49Tn9T+OkdRAa/vQWiqGcWHZn+d5Dej1eQGaol4o3+aemubxuuaUY2rVgOL1Vl93h3LxMMH/ne0H9JhYM47m1tFOjLpyZlgqiPi7EwHMUZLoIOnHzRVoYyVV3gHVUFVJUN2N+f5bbTbEbL1WBVkf14+lH/W8HEc1Nuk7h7ico24ONPxy2Pg7Rj9GlUh5m/5adVyPu1jvLZoAAAOWSURBVLMNNS5/bu95vn1/9ztGv1Y/nX30jNuPq+d3jKReqtDS7/YhPTssqxqh/SKw9HWh5TVde7yHuvzXVx/9NV2vn6xlfjwyztaYpvTvxzHT7xh1ZSOw9IVdJ1TxuFiVlqu2BmROJZxupxX4cnv3cKeP68etZGn0qdt9cTI2gbn/Xd1NVgbRY9TX6jtLfbx83OhTt9EaZ+95Y8fWaleb5UQfQ+742ufESGqgtX1oLRXDWWFZ1ZqWxxueOuE9AU3jXF0LijYb9bEDTI3XG23pMZ0YQ+Oa8f23/X+u5zHqyjKwzIttvS1ZBMzfuXQFpm9rsU6IamvWr+DyIPa1eSoRfALKys9f34JXfiflX5Px9oxPxnB5cAf9foVc2zlGPaZiO1dWq42tW/9p2N42Wtr1nudX90PH1mpXw/JUH5U59fV9j4v5x0jqpQot/W4f0vPC0vtcLwbEH7qeaL+IR1rPB/ivcbNeebKuN/Xr7b79Oa0+9Rgm96/b7Hvs+7f/jlFXFoKlT5JiK7LrAz6N/9+Yg89vW5bbnBKkarvVJ1sBtfx4DikNNP+4LbwOVP1aE+DN8WaHg/pAkoZrOcbqvdRyPNVzab9vjHXf1d1Ve94esr1ttOdyqq8xY2u3q5+f6sPPSZ/f97g4N0ZSA63tQ2upGM4OS4FXo5a1bpBf1If5qrd3dC3r8V+jTV8fvR/bfarX2zWns0/t4Yn9a+D2Plbj7YB8VScHvBajrkSG5cTJ5QFSARsw+TFCce7EuCwQhxhJvVShpd/tQ3oRWC7gs9RqYoy6YoalfEuE/9aReqWXjfoLFPlHn6tV03YKe2oJd+75Sh7FSGqgtX1oLRVDXc/One+6XvY9PvcYUmg/Vl0xw/LTp09Ovi8sBdGZ43lvZOQLoOX7BJcqlPQLZKln5/X4EjU0Vl0xw9J/s7gMyK8wlxCEPreb5JI3csMld/WST0ALaC2VA9Sz7daRNgNi1xUzLCWpJcFk++z+/t69f/+eHzQYlQMfPnxwHz9+BJR8+8kqbpSoZ/uo4bHrShRYLnUXSL+sQMgBcoAcIAfmyAFgyd38Ku7m50h2+qCokgPkwNQcAJbAEliSA+QAOUAOBHIAWAYEmnoXwnXcwZID5AA5sJ8cAJbAkjtKcoAcIAfIgUAOAMuAQNwZ7ufOkFgSS3KAHJiaA8ASWHJHSQ6QA+QAORDIgQqW8oAfNCAHyAFygBwgB7pz4P8BRsFRLOIjK3QAAAAASUVORK5CYII=;textShadow=0;labelBorderColor=none;shadow=1;" parent="m1atIyZ4gX1CUayxEhNT-13" vertex="1">
          <mxGeometry x="820.5" y="100" width="459" height="230" as="geometry" />
        </mxCell>
        <mxCell id="B0WQdpecp1-6Koi1hBXD-3" value="" style="shape=image;verticalLabelPosition=bottom;labelBackgroundColor=default;verticalAlign=top;aspect=fixed;imageAspect=0;image=data:image/png,iVBORw0KGgoAAAANSUhEUgAAAcsAAADmCAYAAAC6R64bAAAgAElEQVR4Ae2d36scyZXn80+YP8H7V6i4f4RZdmEH78wyqCnuMKhbevGD3/UkKONrPbX2ZZfuhsUw8kC5uWvYNl7QW6PBjbtrwMjSTD9Y0vb0lRv9LoE7lhORJ+JEZERGVGXeqvzxvXCprIwTkZER33M+EZFZmdV3332n8I82GIoGvv32W/X48WP1pz/9Cf8tbUBtRG01lH5DPRBDpq6BauoniPMblxMTBN68eaO22y3+W9qA2ojaCvoel77RX+PtLwtLjOjNTIZH7JjZHG9mB1CWDRRIowi+4w2+6Ltx9Z2FJUHi+fPn6sWLF7P+pzagtph7Oxzr/AkAgCVgCZCMCyRz6C8LSwpSxwqQQzsu2uJ4AybAsgyUNKCgtppDkMI5ApxD0ABgGZlJA5aA5Rhmt4AlIDIEiMylDoAlYDmoFQXMLDGznEvwxXmOa7ADWAKWgGXLXadDnmFiZjmuYAs4jru/AEvAcnKwXC8rVS3XmRuF1mpZLdRqs1XbzUoteDsFzhKbVN7sflGXrK2beQKW4w6+gOe4+m8PWN5VV6tKVfb/irr1ReIa1xe31JWqJT0CKu9mn675X1Bddz8+BSGvHrl66nQ61lV1N2q7Xz2SdQjb5e5V0x9XbqkvwrRofRL9lbJNlUnHpWOm8u2xv/MyLEFtsVTLRQ3CJHz2A9TlzDT3qwtgOa5gCziOu7/2hKUD0Be3rvQeMJOQ2Dn47gep4cGy7TworVJX7+4IwJ3bMiz/rrraMyip37vCcrNaqMVqo/gzDbf9AJUuz834drfZry6A5biDL+A5rv7rDMsXe87e+gNiGMTl9zbISDt/e3ywdIOXw7TrC/Xiiy96nVFyvbvBcqNWPKPUM8yV2siZpV5KNasii9XKLcNuQ1hROW71ZLkmEAY2oixaZTE2wm61tKsvBG8GqF4i5lUZu1QclC3r3LINWI4r2AKO4+6vnmFp4HT16hVV6SVJCat6+1a9ZFhV6sqtL8Ry5xfq1hUXoMxMKZL/Li3tGjuZ/+5Vl7e6ercuV+b3gcjBOfbZCyz10iXX85a/HCzSTDtR3VLtQ/vDc+Pz8tNMe3Aan2+sXV+oeHtRnph9UKZXfzmrre2Sfcx1Sn92gqUHSAFODRwCkoMazTwre51SwsqAUgLOgE7a+GX51zxNmr1muiZoLtW6Ab2wvNyycXPmCliOO/gCnuPqv86w9JdhTfB2EJNB1qRZkOnrbHyNzwRol4+DaSQ/L/2lrqMxdPR1VJmfy8x/doelOVdeGtVtZK+dBnW6e7UeNJg88fYJ8rSeo7RNtatsgxJ7aUPbApBeP5i0+DnIY6a3u8AyXHrVQOTZmwdSMQOkG3zkrFHPGDNwi9jQjDE6A5VlEzA1PHnww4CU4GxCkWel4SdgOa5gCziOu7/2hCU7O30y8CgAyqAafm9J0wFXlsPBVOaR2yadZkcMpBd8k4uehfGyZDNPbCYZ7usMSzofhrq+Nijqoc9Vtl+lDFyETZin93Z9oaLtVdIPERvXD23nwH3a/rk/LOsZnZyF6+0afEOApQdZOfMFLAGScYNkDv23JywZRmHgawuWLWmRAGwAJvPIbTqumTVpWHr5aT/XL8wT1jf+/fJhmRsYUL1k3eX2Dmleu4hz9faL9vL2C3tZl4jNIGBJM7ZFcI1ya5ZU3YyPZ39bfQNQv8uwPBsNwSe+yzpqcGJmOYcgi3OcxkBgGLCswVeyDGttZNCWP2HQ+48MSw0XN+ttLsOG12tDAIbf94Rlql2T7ZVatpXHp213bi9kP0ioNmbHEr7p7X1nlrQM2rzOWEORl2LFEmj7DT7+LNXBluHGv83kFQKxP1x29b4beOufXXk/bxFAbVzbTC/LUlshEE8jEKMfh9+PA4Elw4GDDwfjMEhfUebmIWNnl2DlTSlXrqqrx55ZEijEsvCVW203+JQsw4obcvTNS812cb91lWmpdjVQ1EHba6+UfVCmBiT3FQ9MOG/bd7Jp/98XluH1vDl8ByyHH2ABwen00R6wbA92uWC4f3oQsDNBd//jmN/6dcmPvPtrBLBMzyTDAQBgOZ1ADKgOvy8Bywh0KQgBePsDr0vbAZaAJcAxfHDMsY8AS8ByUAMDwBKwnGMgxjkPf4AwIlgebqaDmeXh2jqchQKWgCXAMXxwzLGPAEvMLDGz3OEO1PC64TG/08BijkEL5wyYHkMDFTkc/tEGQ9LAMQE0pmMPqc9QF8SQqWtAw3JMAQJ1LV+mQ1uhraABaAAa6K4BGggAliNdgoMDdHcAtCHaEBqABko0AFgClPbVUSWCgQ0CCzQADcxRA4AlYAlYQgPQADQADWQ0AFhmGmiOIyicM2YO0AA0AA34GgAsAUuMKKEBaAAagAYyGgAsMw2E0ZU/ukJ7oD2gAWhgjhoALAFLjCihAWgAGoAGMhoALDMNNMcRFM4ZMwdoABqABnwNAJaAJUaU0AA0AA1AAxkNAJaZBsLoyh9doT3QHtAANDBHDQCWgCVGlNAANAANQAMZDQCWmQaa4wgK54yZAzQADUADvgYAS8ASI0poABqABqCBjAYAy0wDYXTlj67QHmgPaAAamKMGeoLlWi2rSlXif7mOCYrsFmq1iaWl9pXmKbHL26yXlaqW6/JR1malFjufU+pcaX++jnMUKs65TTO7pMX0JffJ7aDc3rW+VdtUmeulqhYrtcFgtjwWoa0uta16hGUJBFscMdnRpXlK7DI25LiLpVouSs4lCCTJ+u9ql6ljb8fZtV6wnwawY/qS++T2sfp8rZYA5aUG/mlo+bD6BCwFfDarhVqsNoo/jyOoIQSrw4rwOO0813OM6Uvuk9tHaqPNBjNKEZfgH0fSYdAHlw9LvcxilmgXq5W3DKuXPHnpVi59tuTxhNNmJ9KqaqnW+sTbAsFGrXhGSXm9kW2db7W0S80EVVMXWWa9vaalWXPOtBxN8OUlapdvq+LnL8sbhki8Ng8EhLSx9VFMX3JfU8NOs9KOzpt8xl1+4UsvcV2n7IMyPb+tFJdpL09EfXBsfYD6jjFuZGH5xz/+UbX9O2A4p/Hh5ARvoBFb4pQOQ9uleVJ2sryt2q6XesZoHS52zdQDpACnhay4lknXU6IANnW311q0XVUf29TD5ZMOI+srt41NW/sjrV2fU2mfkuCSO1fnq6EPSs0FGtbwYntpZ0DpQCr1zNsl9tLGHNsCsnHslA/CT3J9j3QTJ0r8KGVTBMtUZrdfCp4dpb54H5uhMaxqmJhZV+2QHrSorD3K1k4m4c1Olihra2Z/0vE12O1sN8wnv6e2Y3WXtgxPrmcsIIm2xIxuttdwKNA5X0troswu0KAdDKb1RzNFAzCRV/sYr9gEdUr5tR1gSvv2MqPHbtRZloftEq3M0abMP9L6OR4sPWcTM7neYBlzZOGYHnxoP0NLfnIZYT75PbVNjS7Tgu+p82/kSXfeHAU/x3MudfIyO+Fr7AOeFkPNmhlkMSy9ssSxvP1S0+J4ERvAUrYVtrv4f5l/pNv4cmGpAz+PSvnaXT2CpdEnzzq1k8iRbSIPO7cdWabsyAHF8qfNJxzT7qtneFwXuz8RJOyxZX1j29To4fHE99bz5/LSHddFNMg7rnYtdfJSO31NUehdf/dWUYTveAAT+q2vV8rVGK2rpK6NPzXsPR+h8p1Pm5+VlAxYx9Wf8L/j9Fepf6T6p0dYyhmZcDaxJOPf4GOcRy/Bhj/XSOYJGrnNTju5qJMOBtLZXVkULJpOXMM9mk+Wk9qm8mVa+D11/mEeV89UJ2L/tNuo1MlL7cIbc+ygVQwEl0t3U5q9hhjVs/MxY5fSNes/tA/07vmtHDQGdo26TFsD8PHu/VvuH/Fj9QTLeOHoYLQLNNBdA6VOXmqHPuneJ2jD8bVhV/8ALO2y6/g6Hw47jz4rdfJSO+hmHrpBP/v93NU/AEvAsuhOSzie73iHbI9SJy+1O2Tdcazj6QZt77d9V/8ALAFLwHLgGih18lI7BFE/iKI95tEeXf0DsBx4oIQjz8OR2/q51MlL7dqOhTTobaoa6OofgCVgiZnlwDVQ6uSldlMNhjgvgL5NA139A7AceKBs63ykzSM4lDp5qR10Mw/doJ/9fu7qH4AlYNnrzPLVq1fq4uJCffvtt/hvaYMnT56oZ8+eFbV9qZOX2s0tiJIWN5uN+v3vf4//ibUB9Sv1b4mmu/oHYAlYFgmtRIxkQwB49+6d+v777/Hf0gYvXrxQBMySdi118lK7kmNOyYYCKg3i/vKXv+B/Ym1A/Ur9W6LXrv4BWAKWRUIrESPZ0CgPoMwPFN68eaMeP35c1PalTl5qV9qXU7GjGSVAOd2BAvVviVa7+gdgCVgWCa1EjGQjYakm+tfHYACw9K8nleprHzvAcrqgpEHQ5GD5f778f+qHZ/fVX/3Db1T1d7/Wn/Sd9u/jAMhzuGCzS1sDlvlZJcEWsDycfgFLwJJi2Chmlu9/9JUGJEEy9v/Bx2VrzrsEbdgeLhjJtgYsAUuph/R2+GD0y9MrYAlYkg4HD8scKBmeAOblBYt0wOr/mIAlYFmmt31guU+erV6mwzXL6QJzEsuwtMTKMNSff/srVf3NP6nqv/7SfP7tp156+5IsOYp7vQ+92iv2Wq28o+7ncOlydy2vPg/7/kAG1q7lcL6tMu/9k68zEmlt12S994gW5mkrL3fN8vxUVdWpOo9dy6S0U5FSaHt+6jRxcvbAlazzmzS5P2lPOduO6Uru5QYmLMPuo/d98gCWUx8oTAKWdE3SwvK/fap+cOPX6v/+y7/rsPO7f/tO/eD6/1aVAOYPf3a/5frlfo7ShFxf5TBcdi3P2C8W4iW3GkC7lsPHP+bnutFf8ZnlA3V2Uqnq9FSdRmFJ6SfKsG4H2wdn6szy9VydVlwGbTOUxf6kfe6YgpRKRWFJOnv06FE0ja5RUhrZ8M1BgGWL3r13WrKfkL0bGFU82PRs+UXRvk9gGXY8s8q3b9+qhw8fJu9epjSykQOAScCSb+bRwPybf1IESPn323/5dzPLrK9l/tU/fNYIvg52Lc6Vme24MsiJ+iqHHXLX8mr79UotxNvq+68X1+8yP0thyb0uIcb7lFIPztSJnFXqpF1sKYMAbjBLfXB2ouTs0hxZ2NuqJI5p080GA09+kgPfuHFD3b9/3wKR02kfpREgeR9gmfIb2s+ADFdNwjzB9/UyutoEWI4HluQX169f134kgUjb5EeU9vr16+nB0s4qCYY/+scg5Jiv1Y/uutnn3/16P1gmR5fire3WAWsHI1jVI1W5nLteRkavIYzF8RarlVpWYglUpFVVbKTrHJyO5Y7t9hPc0/VoOaeNGAyI86M32G9W7s33qWOa5Vw+f657Xa/VUtHSt1v+pv1Vo7/iM0vu+jiMCGYNVqpdbKl8Z9+AYwBPUxtnz7WTZbh9zS0GXvhJDxoIgcmgpDRpD1j6ercDWu0/rD0z0CNfIA03BpSer9W65Rmn8FnAcjywJCg+f/68AUwGJaWFEJ3ezPKv/5f67VdPvcjzu399pqq//oWFZX5myYHcfEYdyI4uDVQcGHiGZYJ8xbO6NUHAd07juAln1jNTdl6GEMMyyGPrwscOHV7ay+2Ufds5yTpUyj8/AWXvfOUx5fZWbW3daX+l7LJXkN8GuTo47Q7LGLRIJrH9sX1GUnQtkmePJbCU9k6U6fKdTXwZlkEogZkCJdkCloHeGG47wzLmu9J/cM0yhMsYvktgtoGSzmUSsPSuWf7oH9V/+PtfqN89+lbHnd9++Vj94O9/YW70qZdh97pmmRpdRpwuDsHAaTUMGMoMIOF8VC6DVju4yJ+qCweC0J6+0/H0aFiUw/vtNZq6HkXnFJTTWHaW6WI7WXdh06h/D8uw56cWchJIUVhGbc31RgYlldEOy6a9O253WBIIGZg0ywxnlAxVwDLUFfsY7XeDUbPawUAM8xjb5oCYyzKfmFmOa2bJMGdg0tJrbEbJdpOAZeNuWFpy/c//U1X/8b+r6j/9D700K5dq83fDJuAVmxkWgYWcSTigl4dmcYnjtcKSHdt3WDcDE8fT8DGzxeVa7E/Vw9svyxd55fk04Bacr7QtKruZ352Xqc9uM8vYdUNGVwiumG1sX31Xq1jXdfBM2PMho7NZm2g3GHhtn3Rdhf5TNoAlaZYHpebTQk9rkdN8H7SXJ3i51bMVKyBa+0aTgOU4YUkwpGe/5p7rOwlYUiD94KONXWaVYAy3P/joq8b1Lz8QSyAYJzDpxumso1knKVmyDII/zfIYhNoJfUeVxzNLwLFlWLHkaesS1jco1zp8vT9Zj5JzCtup7btMS7WjtAnaa9txZhm9sYeZFMAyZhu9FlnfMBS7GzZlz4fsEZYpSPJ+wFL6xOVuA5bjhSXPHts+JwPLEmDmQRkG6cC5LGzq0SiPOvXMiUeovLTTFvwNjPSNLIulWsZmlgRAsVTbfoNPbKQbHt+ci7kBhyHaVg8DNb7ZpnndNiy/7XuQFm3HwEbORiODgV1mljTjExNAiyyz4cMyZkv7uB340y7HEhjrmQsfo9VeH9Q/ZlAh+5WB1+UTsAx8OKIlf7C8vz1gCViSlgb/BB8WPC2x/vBn/+w/G/Zn/4xnw15ikOC2P+RnOywtb8wNPCdnSjxGQCYG2+fqtNg2yHoJX7tAkvMClvvDb1c9A5aAJWlmNLDcVeChPc8Sws/QDt8PF4RibS1hyWDAZ/MReIDl4XQKWAKWFKtmA8tYYMa+wwWc0ra+uLjQT+AAIJuAlG1CTyJ5+vRp5jq96d9SJy+1K+3Lqdjh5c/ThSVe/jyxpcmpBJ2S83j58qW6ffu2unnzJv5b2oDaiNqqpE1LIVhqV3LMKdnQase9e/fUZ599hv+JtQH1K/VviV67+gde/gwwFwmtRIywuZyZfqmTl9qhny6nn9Cuw27Xrv4BWAKWgOXANVDq5KV2COrDDuron8vpn67+AVgOPFDCcS7HccbUrqVOXmo3pnNHXaH/vjTQ1T8AS8ASM8uBa6DUyUvt+go+KAcgG5MGuvoHYDnwQDkmMaKulxM8S5281A79dDn9hHYddrt29Q/AErDsdWb58uUr9e3Fhb5Dje5Sw3+iDS4uFLVVSYAtdfJSu5JjwmbYgR/9s3v/dPUPwBKwLArYpc5Jv7P87rvv8F/QBtRWJe1a6uSldiXHhM3uwRhtNuw26+ofB4PlV199pX9/9/7776v33ntP0Sf91oz2Q2TDFtku/UMzyTnB8g9/+IPa55/aqO/fh3UNBrv085hsqZ3pwQT0JB/8T6sNqF/79qOUtg8Cy48//lj9+Mc/Vp9++qn65ptv9Dv+vv76a/Wb3/xG7//kk08AzInMcOcIyz//+c9ql3+CK2B5uAEinuCDJ/gQALsOJi8dlgTKO3fuWEjSy3DlP8Hzww8/VADm4YJHauTUx37AMg9OwPKwWsezYacLS3p1F/VvSewaNCxpiZVmlDyblJCU25ROdl9++WXLSdOrotzrtuiB6vxOSb+hwldKlThmex79+iz72q9UefVrtfT7MDdqtWq+69GvZ7wcerlt892ccduS8g5tA1gaWH7wwQfJ2SZgeVg9A5aAJcXBQcPy5z//uV5qlWBMbf/qV79SZJ8O7u1Ac/lK7aTDtuShdzzyC6Hblko3K7Vcbey7LuMgl8dMbRN0+b2WKZvh7m/A8vOP1E9+8hP9/9Pzh/HrmSU2BTfMHONaKYEvXIIlUPJ/mEbfpwFL8hk5eB2uZgFLwHLwsKSbeOjaZAqQcj/NLsneQS8EQgvQPIiV2sny03loVnnwmR69XDo7k5X1H862D8vP1Uc/+Uh9rkFH2z9V5w/DO2VLbMI8w/kewpIhKT9DYE4Hlg6QevWlZFCZeXl42v/31zhgCVgOHpZ016sEYm6b7NPOkgbalmZ/9Sh3sVqpZeWcmJY17TswJYBa8rg6NGd58fLquq2W9lgeYMWx/OXjeum2rrudjZbOZr1Bwv7BxJ1v9zI8WNKM8aPP7Wzy4flPVWN2WWIz0FklzWRDWIZgjH2fIiy3xRBs8eNL0jNgCVgOHpY0U8xdr2SA0gw0P7MU4KuWaq2di5zPXb/UI1wBSwcC6aS75OHjhCBplmdngzQzTNTPgL2GeXIGSWWnjhvWY1jfJSwbcAzASLApsTnG8mrpMQFL1p/0h62SA1g3QDR+5w9eTb7lcuF8xhtcsh/k7FwMcD5v6gZYApaDhyVdg6RrkQzEtk9619xe1ywbs7DAaTW4GLI1pHJ57AiXymJnrYNCrLzGqFrUQTu+XwbNTvUssg4K3ixUH7s5ow0DwFC/zxGWBMxd/wnG1FYl/Vh6Y0KpXckx8zZC49ut8pdhKU3AS+ucV3v8fGZGKm9qC9LXy/oyiCnT+UrbMRjggCXdLTqm/7dv3+qXx6fqTC9NJxuZToOhvF4HfoMP3d3a792w7HDCGdrA54FKAKgtjwUlHYMcUoAuVd6+sKyPZWbDIriEx/XqJM59gPvnCMvYUmvbvuksw/IglD5TfmL0ageIbb5CetY+Jsut6uv3AUQ9XwyP4fsIZpbjAeabN2/U9evX1f379z0gEhxpH6W9fv3aS5sELIn29PtJ+h1lajmW9lM6/R6zfXQQOIsFhT/C9JZhaRbINx1o52LYtuSx5ZLDCcDS/tbyuGzKJ+vqH8sEAxFY6uNRve2omerK9fbq4weB9vY6jq2E5XfBsmtjyZWuRZbYjOiapbyxh7dDcE4HllLzQm+tIJO+EfoKw7LpH75Pxe0ckEVdtlv9Ozw5E8H2sOH5/PnzBjAZlJQW9t9kYMnApBkmLbXy3bEESVqipf15ULJT+SNOCxexNOrf4CNuoFks1VL+JCOZx3c0D2IannUdvPJKAgDXXQQYUQdvZE775c1IIwKmB8uH5+qn0bthxZ2xSZvh3PHadv2SwBfCkCFJn2EafZ88LPVgUayUePDM+Eqd1/q21X4sX+oYvg9jZjlsOIbwo+8SmG2gJNtJwZKASUuydE3y2rVr+tmw9Enf2x9E4Iv+KDOpg8/ygtmsDRYDaIuCuniw5Jlj/TvLjz5nAApYJm3YdtifMVgSEFOgnAcseeYXGSBut8reUa4HhCEEw7yJZVjSooZw/BgyVgCW44OlBCYtvcZmlAzZycFSinefbXsHnfdD6CqzdNsPYPTS7oFmejqQHOhY+/RDLk8DlgNeQm2bMZampWAZm1HyvmnMLPvxrZye+kgHLMcJS4Lhq1ev9D+DMfYJWBbMYvpwJJTRb9ADLPFs2KH5FGA5XljG4BjuAywBy4PMmvsObHOEJc0Ud/0f/09H+h1k9a1DWR5gCViSHrr+tOrS3zoiRYvt8QSYffsKL38uv8aKlz8fxh8AS8ASsMTsc3CzT7rGQBDAf74NqK1KBiWlI+JSu5JjTskGsAQsAUvAsijYTinwzfFcSiFYaje3NsTLn6cLSxpwUv+WaLqrf2AZFsAtElqJGGFzOcuKpU5eaje3fqLr6Pfu3dO/86bfeuN/Om1A/Ur9W6Lprv4BWAKWRUIrESNsAEto4HI0gHbt3q6AJWAH2E1cA6VOXmqHwNs98KINx9eGXf0DM8uJB1o49ficOuyzUicvtQvLx/fxawR9mO/Drv4BWAKWmJkOXAOlTl5qh8CaD6xoo+m1UVf/ACwHHijhtNNz2l37tNTJS+12PT7socEpaKCrfwCWgCVmlgPXQKmTl9pNIfDhHADwXTXQ1T8Ay4EHyl0FAfvpBZFSJy+1g0ampxH0ab5Pu/pHESzpIPhHG0ADx9NASTDsGgxKjgGbfFBGGw2zjbr6RxaW6Phhdjz6Bf0SaqBrMAjLm8p3+tE6PeWFHnuH/2m1AfXrYB5KMBWHwXkALlPXAGAZ1zged4fH3ZHvd/UPzCxxzRI3+ExEA12DwVQHE3iQ+nRhSe+2pP4t0W5X/wAsJxIoS8QCm/jMYyrt0jUYTKUdwvMALAFL0kRX/wAsAcuiUVkYgPB9eODtGgym2qeAJWAJWAJ0gwQdv9OSLrzjP90GT548Uc+ePeutDwHL+AAGsAQsAUvAsrdA2+esggDw7t079f333+O/pQ1evHihCJh9tX1/sFyrZbVQq00cPn3VN1rOZqUWsWOvl6parNRmD58HLAFL0lpX/8Ay7B7OF3VylGODPs0mAcr8QOHNmzfq8ePHtt266qprMHDHPyIso360Vss9QUnnBFgClqSDrv4BWEad8wgj6gnVQ8JSTfSvj8EAYFnoZ5vNXjNKhj9gOR5Yvn37Vj18+FDRXa6xf0ojG5lG/ct93fYJWE4IMumOppF+pSrxv1htigSSLrMwUO3RvoBlflZJsB0lLPUyqdPici11tFGrRTNtvXT7quVa6DZmH8xqk8er7VZL6xcpnwAs4+CRwBnKNvnE9evX1f379z0gUv1oH6W9fv3aSwMs9wjSxwDDYY4ZBJBtDU8v8Mig1bYdlpWyLbVr5gcspwpLozsLSO/6ogFfCljGT6SmUvbSpu14Js3Cl65pVku1jsQNwHI8sCQoPn/+vAFMBiWlhWAHLCOiPwyYmsH/+MeVAaSunw5U8eDQXt9IWdG2LrVrthdgOVFYRjRHs0YNz0ia1aEGGc8u6xuHkvZCdxEbezw9YJQ3IYl8gZ4By3HBMgRmGyjJFrAMBG8db5b7Y4HAjMz9UT4HJIZouMxF5bBNpeyoXAcl3k95S+2aoKR+aoXl+amqqlN1HruWSWmnIqXQ9vyU616pk7MHrmSd36TJ/Ul7ytl2TFdyLzcwjW4Ztg1ekTTts95+0iNgGc6M8D0Oc55h0tJrbEbJ7QZYzhKKcfhsG6NospOwDGC6Xiq9HEYj+sZSbWAbls15w/3hd2vXrHMclg/U2UmlqtNTdRqFJaWfKMO6HWwfnKkzy9dzdVpxGbTNUBb7k/a5YwpSKhWFJcHh0aNH0TS6RklpZMM3B40OlloD9UyS/LMBwsroTvqu/MmHtufZoNVvs9AAABVTSURBVNFvc9lW6tMM2vwBIQ8EpR1pMPzudImZZRxGDJshf9Jvtum/rY6ApXS42W/HAkE4SnezK30jEEFSB6cwgAVl1Tby5iED2FI7F5T0TCI3s1QSYgJAD87UiZxV6qRdbCmDAG4wS31wduLPOnX5wt5WJXFMm242GHjyk+7Su3Hjhr4RQe6nbVpKojQCJKcNG5a+nizUPL0w+FgDpBmXz0DOQFHra7FUS55Zap+O2bfpTh4vsAMsW4HSBpuxpwGWswckByD6DANDMKrXAYxH3DKf2d6sFvqOQRO8grKSeUvtmseLzyyZNnEYEcwarEyANW5L5buyG3AM4Glq4+y5drIMt6+5xcALP+lBAyEwGZSUJu2HC8tmn/JAaIyfmFmOd2ZZAnLAErAUt9gH4AqXw+rvdvQfaTsCpkmPl9XMW2rXDKy7wzIGLQJUbH9sn4EZXYvka5MlsJT2Dofp8p1NfBmWQSiBmQIl2c4Zlt5KhpiNXgaMAUvAknSF31lGwHAZDnfcMglcbnmrij0OzFseq2/e8e5CdDNP+7s3vp4Zy7vdqlK7sG12huX5qYWcBFIUllFbc72RQUlltMOyae+O2x2WBEIGJs0ywxklQ3XOsAw1c5nfAUvAkvQFWM4Cls3Z22UGl65l7wbL2HVDRlcIrphtbF99V6tY13XwTNjzIaOzWZtoNxh4bZ/042n6T9kAlofRNV7+PF1Y0s0/1L8lMQuwnAEsU0tWvL9EKIe02QmW0Rt7mEkBLGO20WuRemqpTmJ3w6bs+ZA9wjIFSd4PWB4GlqTHe/fuqc8++wz/E2sD6lfq35L4BljOAJYlQhiSzS6wpBmfmABaZJkNH5YxW9rHgwb+tMuxBMZ6+ZqP0WqvD+ofM6iQ/crA6/IJWB4GlkPyDdTleH0OWAKWRaOqQzppOywtb8wNPCdnSjxGQCYG2+fqtNg2yHoJX7tAkvMClscLnIf0BxxrGP0MWAKWg4YlgwGfzUfgAZbDCKKA2Tz6AbAELAcHy4uLC/2aHQCyCUjZJvS6oadPn/bWf12DAaAxD2jMtZ+7+gfeZwnY9has2Qlfvnypbt++rW7evIn/ljagNqK24nbr+tk1GHQ9PvIDtkPWQFf/ACwBy96C9ZAdZQ516xoM5tBGOMf5Ar2rfwCWgCVgORENdA0GAMl8QTKHvu/qH4DlRALlHMSOc2wP5l2DAdq3vX3RPuNun67+AVgClphZTkQDXYMBYDBuGKD/2vuvq38AlhMJlHCUdkeZQ/tQMMA/2gAaSGugSxwALAHL3meW9LxG+vkIPZwA/+k2ePLkiXr27Fnv7d8lICAvBl3QQFwDgCVg2XuwJgC8e/cu+QBx+VvDOW/T20gImAhO8eCEdkG7DEkDgCVg2Xuwlo+7mzMMc+fe9xN8hhRYUBeAbmoaACwBy0uF5SU8lnUQReZAWJIOWAIoUwPKlM9nhLAMX4RcqeX6UE5Hx16o1eZQx9uqbeIFzp1EqV/2nDmPEpvEQEPOLAdBtkuoRAkMczaA5QH9KKHVTn6EMnsfaA+5P0YKy0ygb4i4L8j1VU5hkNDAWqo1n89mpVYHGxgU1pHrJj4By/ZnwjJEAcv9NTbkoIq6TbNfAUsR5PMiPzAsaVa5WKnNTnU8vlABS8Ay70vH1ynqiD7YRQMTgmUNstXSvvB3sdqo7Zb2V3ZftVzX+xZquVyoqjIzt/UytKmFpGd3Jm2xWnnLsMk8Em4iPx/L1GmhVo26huI1dTfnEaS1lGvO67+o5SJYorbwDaG/UauFO3+zrB3YeMcLypXnu93qn4vw7KmxAqpfyHyqzhsJ9HrLU1XxW5opvdD2/NTV3b742eY3aXJ/0t7mSdRP1JnPr8vnMWeWd+/eVe+//7567733kv+U/sknn8xqqW2X4AnbICYFcWBq7TNSWLrg6AOoUgaGfK2PlzCDwF8DNAohncbLvAZWfE10syK4cpoUSlg+pwX710vlAVyDO6wr5+VPBzKuh4UtXzsNyrXnRXDkY2y3iuDeBKEp3+axgpd199thq8EZawdT5/jM8oE6O6lUdXqqTqsYjCj9RJ3pN0HvYPvgTJ1Z8p6r04rLoG0+jtiftM8dU5BSqejPYig4PHr0KJpGUKU0smHAHguWH3/8sbpz54765ptvFP18JfX/9ddfqw8//FD98pe/BDCtX7Bf4nNqMMydz0hhGQvUMriTkOV3uR2m1aL3bqSpyycoeMugQTmxPNKpgtlYRTNcMbN1NwoF5coyeLsuS8Nup3LFgMGeizieLottZABot3HglXnMdhyWDBsJMd6nlHpwpk7krFIn7WJLGQRwg1nqg7MTJWeX5sjC3lYlcUybbjYYePLz7du36saNG+r+/fsWiJxO+yiNAMn7jgVLmjESCFOQlPsJqGSfCyRIb/oB2mRabQJYEow8YNBMqwCWqTwMt0a5UjgCRNo+/C5t3bae2RJsvWO7dH+AYPZTHpo18qdxYHG8krIiNn3DkmDWYKWKgytuSxBz9g04BvA0yHP2joWxfS6Vtxh44SeBJgQmg5LSpP2xYElLrxKIuW2yzwV+fUlCrGIk7bWWYoNdqeP+t3X95OWYeru5otL/sYfWFsn6yNiF7YbmAUsShb2Wx+BkZyao8NLlVgPHLsMm80hnM/mbDilg1QbL9Ur8TEUul5aWW5/PYqmWCzl7lMeX5YZ1j7dDGtYm/+4zyxSgYvtj+2r0nVZ29lgCS7p22ZxtpstnUNKnhF64LYGZAiXlmQwsCYBaY6wXqaOhbUvt71K3ffPtcoxdbYdYp13PYTz2I4WlvGZZieuA0ll9IdmRZXQZ1ABDL5OGTi+WWv0bfFryyFGZHkmL+kaP79fVjfxof5i3FldRuWRb19Mb9YfH84/TvK7Jgwiui2znpth3huX5aQRahKQIuKK25nqjBF87LJv2DoSRY7pEuxUCMvzOwKRZJm2H6VOCJa9a8KfTb1Mbx08LtV9ax33zlZa/j90Q67TPeYwjzwhhOY6GPX5QOF477QbL2HVDZlIIrphtbF/zzloHz4Q9HzIGaJvmNmLwC/e9fv1a0X+4n79PY2ZJg7F68KRnmPKnTmJAaVdoggAvBn3+YLS2S9wxbge/9j4A0rvJI+9yb/phcPxInmbZlIcHinzfgblhTg+wI3VYrVdqUeehwScNJNjWrTQFdRFt4d+4GLtzPl4ns+rj6moGvtQ2sb44Xoxo9svw6wJYylngwLbZucLPoQttJ1hGb+xhKAWwjNlGr0XWNwzF7oZN2fMhe4QlQzH1OQlYeoAU4CRfolUZb0XDAc3c3GYCPgd0AxRetahhwPn1Co+8lMDBVQLH5HEwYhv5Ke25Prw6Je04TdaHt3N2lft9dL0yZevknYesi9w2bWfymHOy7ZjMz/V1l40MOOs6Uz5uy4HFuaHHM64fYAnhNC5kszj2/dwFljTja97Yw+TyYRmzpX3hYMIuxxIY69E9H6PVXh/WPybXJPxMAXCX/VOAZbj0qoHHQbmeKVlQaF8TUPBAy8GegSTswnz0vYaQ6d9UnhBq4TFi33cou6gObech0rxZZT0z1O0obBrtEKTpMvwBBc2S9WAk2hex9sG+VNwDLLUAIZCUQPbZ3w5LiZ1zdXpypvRPK+Xu6PYuttECet25CxRTtuOHJQVrt+THAxO3hGj8ipcgzQxSBPh9YelBQc5mRdlJvw5tgu+lZZfaeT9ho/aQxxPbXnkyHgmbLrCs28PvC3kcbOdiHWCZdCqIJyeeVLqEZQoU2H+8u2Hpd5O5BxLwz0no95jJ31nSzMr+dpf9xVwb46VV1oibgcrgT9tu2dAE8tQsUeSTx9WQSeXhOslPUU4DPvWsks+preziOrQdT6bRdmw5WNrQecjvcpvTXHum7lp3fSHbBdus1dQnYAlY9r4Me3FxoR4+fJi8sQWgNM+OpTZ6+vRp7+2fcnbeT0/koSfz5B5MQEAlO3riD+eVn7TE5y+xmoCroUdLiN4yJS8PBgFe2ERv8OGnVHmQEDereHevB2VHfTu0Cb+nyhY39Ojl0ZRdWF7b9yBNw1nM1LPLsGGdWu5aF+0czvxln2I7PWgALKMOlW4wiCnfNi9fvlS3b99WN2/exH9LG1AbUVsdQ1P0zNdr164lnwtLDyKgdHqG7MHql1yKzGvuYHVEvDicHgbW1oDlwDoETo/AOFcN6J9s8BJoz37prqeKmVtVzTbwz1VjXc4bsOzZKbt0BvIClPPSgFjK1DcK8VItdDAvHYyjvwFLwBKja2gAGoAGoIGMBgDLTANhhDeOUR/6Cf0EDUADl6kBwBKwxIgSGoAGoAFoIKMBwDLTQJc5Uplq2a9evVL08xH6vSX+023w5MkT9ezZMwQp+CA0MAINAJYj6KSxQZUAgL+yFiBgjq1/UV8sd85RA4AlYNl7sKbZJP7KWuDx48e9t39JIKPfT9KTeej3lKl/SqffY5aUBxsAdOoaACwBy96DIWBZBkqyOgYs6Yk8d+7cyT7yjp7wQ0/woSf+TD0Q4vwA+5wGAEvAsvdACFgOG5Y0Y8w96o6fDUuPvEs+Gxa+07vv5AI20o8HdcASDt+7wwOWw4YlLbsyDEs+yT4XpPXTd/SzTDPBzHs4eca2V9+k57D6T+/xnmt7tHodsg1wrJyO29IBy14dksQYOiW/EWGoQg0e5sxvVC8JfIm2C2Hpv0PyVJ0zS8T7Ju07KDmNP0ts2HaEn8dYhu0dlgQa74HmQ9R6qPPaT3fSeVjGEM8TdWoDXpc0wDIR8PdvVN+h9BsYLul5l/vXUTqUX9/UmyR2OVYIy/PTKvKCZ/mSZdo+UWeNF1uW2IyQkKLKU4Alv/KJP3fRyuFsfZ3r4+784PZIGb3HD+mb2D6cPvJtDVj2LvbQocLv+U45rEBc/eyrlTq2SROWERDSjPHUzjEVzT4bs8sSGwGeMW6OH5b0fNd69UTPMFdqY/XjP/u18fJnstPAMsuj0Vd0rZaKH4Iul031si8vq9rZodHycrlQzddQOZ07/zL1y9XLlEX5xTJufcx4PYbm46iP6/P92wKwtI69fyP6HRE6ZfBdBAfn0LGg4gcSChjhC3XtcaNl1sdNBBubl98TSHaxGbAo2w9m6fbyYflAnZ24IMNAbMAxACOBr8RmjICUdR49LEkfVjcCnORX9A5FCzLWi/QH2na61oO1ii9bmDSbX7+PMfag9WZ5EqoNndv3Y1J9UrCUZZrzMGUG+73Y0ZbG545P1x/jawvA0hN8Hx3oO40OADaY+GkUTLQTJoOKCyRmBM6BRNYzUSZfO+Vg1RpsDMyaMKayXR38YCbr4G/7sJRocMutJSAssZGlj3F77LAkTUg4aY2w5uqBlkw31/RTM1GpZblN+gq+az3zIIz9IrDxfDuWJuEu0sUAkWe1BtrChsuO1sP3hzEDAnV3fQlYsuh7+ySHYiemTzEaTjlhLKjofSLv1rwVvQG0VJlhcGl8ZxHUAWC9Ugs7qq/TqGwLetoXCRaRdkvDUim6fkmzyxIQltiMEZCyzuOGZah11r2vWzPI4kGX0FCrvoSd1pj47vlGAngNXYr8nOaVI9K9/ewnEf17drIeMg+2pwJcwJIdp7dP4XRhmZ5zNZ3ICyoRW7o+EoelH5yMOMN6hN/5+GJ/OPukOlwCLPWlymDZtQFGIkqJjSTPCLePAUv63ST9frLkZyP0e8zk7yxJL54+SFNyaZM1tlVuBir0pgdfTtNG/6lZosgnj6v9JJXHHb850KPy3LH9dJPmz4ipLFEH8u1kPeRxsQ1YhiDA9/q3aIFDee2SckLnUH5QEc4cgaeDYuUthbn9HEQijm7r5ddXBywbAE19GdDtwcydQ3Jm+eBMnfBdr3qbf0bilmeVEttJmxFSMVHlY8CSnshDT+bJPZiAgEp29MSfWMBL3TmtdUJLsXrwFc42fb1JG/+aeGDngcoAWS+Rej9ZCfM4TRrQcV3oU/pGxD+0vwn7emnZ3tCjv6fqIY+L7Zh2xrgPM0sLjb5E3eawzZt29LWQaFAJbUPnFvWNOnZYj/A752/u1wGBgSnq1h7MuLytftOIYwPBzwUdcQOsmTnWaW6/gCUVQrPLho0rfexbx4AlBSp65uu1a9eSz4Wl32JSOj1D9mCBLTkgdNo6WF16jws4h7H3HWAJpygPhoXBLDmzHDvZLqH+x4LlEAOXN0g7sF/ygIw+h9g2qNPxBxuA5YGdcg6iByzLqTpvWIplTL16ELv2fvwgOQefxTnmdQZYApa9j6QBS8ASwTcffNFG42ojwBKw7B2WFxcX5bSYueXTp097b38E4XEFYfTXOPoLsAQsew/WL1++VLdv31Y3b97Ef0sbUBtRWyFYjiNYop/m3U+AJWCJYA0NQAPQADSQ0QBgmWkgjCbnPZpE/6P/oQFogDQAWAKWGFFCA9AANAANZDQAWGYaCKNKjCqhAWgAGoAGAEvAEiNKaAAagAaggYwGAMtMA2FEiRElNAANQAPQAGAJWGJECQ1AA9AANJDRAGCZaSCMKDGihAagAWgAGgAsAUuMKKEBaAAagAYyGgAsMw2EESVGlNAANAANQAOAJWCJESU0AA1AA9BARgOAZaaBMKLEiBIagAagAWgAsAQsMaKEBqABaAAayGgAsMw0EEaUGFFCA9AANAANAJaAJUaU0AA0AA1AAxkNAJaZBsKIEiNKaAAagAagAcASsMSIEhqABqABaCCjAcAy00AYUWJECQ1AA9AANABYApYYUUID0AA0AA1kNABYZhoII0qMKKEBaAAagAYAS8ASI0poABqABqCBjAYAy0wDYUSJESU0AA1AA9AAYAlYYkQJDUAD0AA0kNEAYJlpIIwoMaKEBqABaAAaACwBS4wooQFoABqABjIaACwzDYQRJUaU0AA0AA1AA4AlYIkRJTQADUAD0EBGA4BlpoEwosSIEhqABqABaACwBCwxooQGoAFoABrIaACwzDQQRpQYUUID0AA0AA0AloAlRpTQADQADUADGQ0AlpkGwogSI0poABqABqABwBKwxIgSGoAGoAFoIKMBwDLTQBhRYkQJDUAD0AA0AFgClhhRQgPQADQADWQ0AFhmGggjSowooQFoABqABgBLwBIjSmgAGoAGoIGMBgDLTANhRIkRJTQADUAD0ABgCVhiRAkNQAPQADSQ0QBgmWkgjCgxooQGoAFoABoALAFLjCihAWgAGoAGMhoALDMNhBElRpTQADQADUADgCVgiRElNAANQAPQQEYDgGWmgTCixIgSGoAGoAFowMKSNvCPNoAGoAFoABqABuIa+P/VRAVqAzd3awAAAABJRU5ErkJggg==;textShadow=0;labelBorderColor=none;shadow=1;" parent="m1atIyZ4gX1CUayxEhNT-13" vertex="1">
          <mxGeometry x="820.5" y="355.5" width="459" height="230" as="geometry" />
        </mxCell>
        <mxCell id="1" value="Referencias" parent="0" />
        <mxCell id="RW2d4hUB_fe7PCY3z_Wn-29" value="&lt;u&gt;Ingreso de Animales&lt;/u&gt;" style="text;html=1;strokeColor=none;fillColor=none;align=center;verticalAlign=middle;whiteSpace=wrap;rounded=0;fontSize=28;fontColor=#000000;fontStyle=1" parent="1" vertex="1">
          <mxGeometry x="475.5" y="30" width="392" height="54" as="geometry" />
        </mxCell>
        <mxCell id="DbUrJSsnT1rQDzhDRlxK-40" value="intLote" style="text;html=1;fillColor=#ffffff;align=left;verticalAlign=middle;whiteSpace=wrap;rounded=0;strokeColor=none;fontColor=#FF0000;fontStyle=1;fontSize=11;spacingLeft=2;fillStyle=solid;gradientColor=none;fillOpacity=100;" parent="1" vertex="1">
          <mxGeometry x="1338" y="448" width="118.11" height="19.685" as="geometry" />
        </mxCell>
        <mxCell id="DbUrJSsnT1rQDzhDRlxK-43" value="intPotrero" style="text;html=1;fillColor=#ffffff;align=left;verticalAlign=middle;whiteSpace=wrap;rounded=0;strokeColor=none;fontColor=#FF0000;fontStyle=1;fontSize=11;spacingLeft=2;fillStyle=solid;gradientColor=none;fillOpacity=100;" parent="1" vertex="1">
          <mxGeometry x="1338" y="472" width="118.11" height="19.685" as="geometry" />
        </mxCell>
        <mxCell id="DbUrJSsnT1rQDzhDRlxK-44" value="dblPeso" style="text;html=1;fillColor=#ffffff;align=left;verticalAlign=middle;whiteSpace=wrap;rounded=0;strokeColor=none;fontColor=#FF0000;fontStyle=1;fontSize=11;spacingLeft=2;fillStyle=solid;gradientColor=none;fillOpacity=100;" parent="1" vertex="1">
          <mxGeometry x="1338" y="423" width="118.11" height="19.685" as="geometry" />
        </mxCell>
        <mxCell id="DbUrJSsnT1rQDzhDRlxK-46" value="qdtFechaNac" style="text;html=1;fillColor=#ffffff;align=left;verticalAlign=middle;whiteSpace=wrap;rounded=0;strokeColor=none;fontColor=#FF0000;fontStyle=1;fontSize=11;spacingLeft=2;gradientColor=none;fillOpacity=100;" parent="1" vertex="1">
          <mxGeometry x="1338" y="350" width="118.11" height="19.685" as="geometry" />
        </mxCell>
        <mxCell id="ME_lDW3y6QbKv71wfPjl-28" value="qdtFechaServ" style="text;html=1;fillColor=#ffffff;align=left;verticalAlign=middle;whiteSpace=wrap;rounded=0;strokeColor=none;fontColor=#FF0000;fontStyle=1;fontSize=11;spacingLeft=2;gradientColor=none;fillOpacity=100;" parent="1" vertex="1">
          <mxGeometry x="1338" y="399" width="118.11" height="19.685" as="geometry" />
        </mxCell>
        <mxCell id="ME_lDW3y6QbKv71wfPjl-31" value="intLocacion" style="text;html=1;fillColor=#ffffff;align=left;verticalAlign=middle;whiteSpace=wrap;rounded=0;strokeColor=none;fontColor=#FF0000;fontStyle=1;fontSize=11;spacingLeft=2;fillStyle=solid;gradientColor=none;fillOpacity=100;" parent="1" vertex="1">
          <mxGeometry x="1338" y="496" width="118.11" height="19.685" as="geometry" />
        </mxCell>
        <mxCell id="ME_lDW3y6QbKv71wfPjl-32" value="qdtFechaDestete" style="text;html=1;fillColor=#ffffff;align=left;verticalAlign=middle;whiteSpace=wrap;rounded=0;strokeColor=none;fontColor=#FF0000;fontStyle=1;fontSize=11;spacingLeft=2;gradientColor=none;fillOpacity=100;" parent="1" vertex="1">
          <mxGeometry x="1338" y="374" width="118.11" height="19.685" as="geometry" />
        </mxCell>
        <mxCell id="a2sFDN_NWmxtTnVPATm6-26" value="datNacimiento" style="text;html=1;fillColor=none;align=center;verticalAlign=middle;whiteSpace=wrap;rounded=0;strokeColor=none;fontColor=#0000CC;fontStyle=1;fontSize=10;labelBackgroundColor=#ffffff;" parent="1" vertex="1">
          <mxGeometry x="966" y="409.25" width="80" height="23" as="geometry" />
        </mxCell>
        <mxCell id="a2sFDN_NWmxtTnVPATm6-27" value="" style="rounded=1;orthogonalLoop=1;jettySize=auto;endArrow=oval;endFill=1;shadow=0;fixDash=0;backgroundOutline=0;labelBorderColor=none;verticalAlign=middle;strokeWidth=1;strokeColor=#B5739D;startArrow=oval;startFill=1;exitX=1;exitY=0.5;exitDx=0;exitDy=0;endSize=3;startSize=3;entryX=0;entryY=0.5;entryDx=0;entryDy=0;" parent="1" source="a2sFDN_NWmxtTnVPATm6-26" target="DbUrJSsnT1rQDzhDRlxK-46" edge="1">
          <mxGeometry relative="1" as="geometry">
            <mxPoint x="1045.25" y="495.75" as="sourcePoint" />
            <mxPoint x="1302.25" y="363.25" as="targetPoint" />
          </mxGeometry>
        </mxCell>
        <mxCell id="a2sFDN_NWmxtTnVPATm6-29" value="datDestete" style="text;html=1;fillColor=none;align=center;verticalAlign=middle;whiteSpace=wrap;rounded=0;strokeColor=none;fontColor=#0000CC;fontStyle=1;fontSize=10;labelBackgroundColor=#ffffff;" parent="1" vertex="1">
          <mxGeometry x="967" y="469.25" width="60" height="23" as="geometry" />
        </mxCell>
        <mxCell id="a2sFDN_NWmxtTnVPATm6-30" value="" style="rounded=1;orthogonalLoop=1;jettySize=auto;endArrow=oval;endFill=1;shadow=0;fixDash=0;backgroundOutline=0;labelBorderColor=none;verticalAlign=middle;strokeWidth=1;strokeColor=#B5739D;startArrow=oval;startFill=1;exitX=1;exitY=0.5;exitDx=0;exitDy=0;endSize=3;startSize=3;entryX=0;entryY=0.5;entryDx=0;entryDy=0;" parent="1" source="a2sFDN_NWmxtTnVPATm6-29" target="ME_lDW3y6QbKv71wfPjl-32" edge="1">
          <mxGeometry relative="1" as="geometry">
            <mxPoint x="1070.25" y="428.7500000000002" as="sourcePoint" />
            <mxPoint x="1342.2499999999998" y="399.2500000000002" as="targetPoint" />
          </mxGeometry>
        </mxCell>
        <mxCell id="a2sFDN_NWmxtTnVPATm6-31" value="datServicio" style="text;html=1;fillColor=none;align=center;verticalAlign=middle;whiteSpace=wrap;rounded=0;strokeColor=none;fontColor=#0000CC;fontStyle=1;fontSize=10;labelBackgroundColor=#ffffff;" parent="1" vertex="1">
          <mxGeometry x="968" y="494.25" width="60" height="23" as="geometry" />
        </mxCell>
        <mxCell id="a2sFDN_NWmxtTnVPATm6-32" value="" style="rounded=1;orthogonalLoop=1;jettySize=auto;endArrow=oval;endFill=1;shadow=0;fixDash=0;backgroundOutline=0;labelBorderColor=none;verticalAlign=middle;strokeWidth=1;strokeColor=#B5739D;startArrow=oval;startFill=1;exitX=1;exitY=0.5;exitDx=0;exitDy=0;endSize=3;startSize=3;entryX=0;entryY=0.5;entryDx=0;entryDy=0;" parent="1" source="a2sFDN_NWmxtTnVPATm6-31" target="ME_lDW3y6QbKv71wfPjl-28" edge="1">
          <mxGeometry relative="1" as="geometry">
            <mxPoint x="1052.25" y="489.5000000000002" as="sourcePoint" />
            <mxPoint x="1342.2499999999998" y="425.75" as="targetPoint" />
          </mxGeometry>
        </mxCell>
        <mxCell id="a2sFDN_NWmxtTnVPATm6-33" value="dspPeso" style="text;html=1;fillColor=none;align=center;verticalAlign=middle;whiteSpace=wrap;rounded=0;strokeColor=none;fontColor=#0000CC;fontStyle=1;fontSize=10;labelBackgroundColor=#ffffff;" parent="1" vertex="1">
          <mxGeometry x="994" y="517.25" width="50" height="23" as="geometry" />
        </mxCell>
        <mxCell id="a2sFDN_NWmxtTnVPATm6-34" value="" style="rounded=1;orthogonalLoop=1;jettySize=auto;endArrow=oval;endFill=1;shadow=0;fixDash=0;backgroundOutline=0;labelBorderColor=none;verticalAlign=middle;strokeWidth=1;strokeColor=#B5739D;startArrow=oval;startFill=1;exitX=1;exitY=0.5;exitDx=0;exitDy=0;endSize=3;startSize=3;entryX=0;entryY=0.5;entryDx=0;entryDy=0;" parent="1" source="a2sFDN_NWmxtTnVPATm6-33" target="DbUrJSsnT1rQDzhDRlxK-44" edge="1">
          <mxGeometry relative="1" as="geometry">
            <mxPoint x="1074.25" y="514.2500000000002" as="sourcePoint" />
            <mxPoint x="1312.25" y="493.25" as="targetPoint" />
          </mxGeometry>
        </mxCell>
        <mxCell id="a2sFDN_NWmxtTnVPATm6-35" value="cboLote" style="text;html=1;fillColor=none;align=center;verticalAlign=middle;whiteSpace=wrap;rounded=0;strokeColor=none;fontColor=#0000CC;fontStyle=1;fontSize=10;" parent="1" vertex="1">
          <mxGeometry x="1130.25" y="407.25" width="52" height="23" as="geometry" />
        </mxCell>
        <mxCell id="a2sFDN_NWmxtTnVPATm6-36" value="cboPotrero" style="text;html=1;fillColor=none;align=center;verticalAlign=middle;whiteSpace=wrap;rounded=0;strokeColor=none;fontColor=#0000CC;fontStyle=1;fontSize=10;" parent="1" vertex="1">
          <mxGeometry x="1130.25" y="433.25" width="68" height="23" as="geometry" />
        </mxCell>
        <mxCell id="a2sFDN_NWmxtTnVPATm6-37" value="cboLocacion" style="text;html=1;fillColor=none;align=center;verticalAlign=middle;whiteSpace=wrap;rounded=0;strokeColor=none;fontColor=#0000CC;fontStyle=1;fontSize=10;" parent="1" vertex="1">
          <mxGeometry x="1130.25" y="462.5" width="72" height="23" as="geometry" />
        </mxCell>
        <mxCell id="a2sFDN_NWmxtTnVPATm6-38" value="" style="rounded=1;orthogonalLoop=1;jettySize=auto;endArrow=oval;endFill=1;shadow=0;fixDash=0;backgroundOutline=0;labelBorderColor=none;verticalAlign=middle;strokeWidth=1;strokeColor=#B5739D;startArrow=oval;startFill=1;exitX=1;exitY=0.5;exitDx=0;exitDy=0;endSize=3;startSize=3;entryX=0;entryY=0.5;entryDx=0;entryDy=0;" parent="1" source="a2sFDN_NWmxtTnVPATm6-35" target="DbUrJSsnT1rQDzhDRlxK-40" edge="1">
          <mxGeometry relative="1" as="geometry">
            <mxPoint x="1068.25" y="539.2500000000002" as="sourcePoint" />
            <mxPoint x="1340.7500000000005" y="447.75" as="targetPoint" />
          </mxGeometry>
        </mxCell>
        <mxCell id="a2sFDN_NWmxtTnVPATm6-39" value="" style="rounded=1;orthogonalLoop=1;jettySize=auto;endArrow=oval;endFill=1;shadow=0;fixDash=0;backgroundOutline=0;labelBorderColor=none;verticalAlign=middle;strokeWidth=1;strokeColor=#B5739D;startArrow=oval;startFill=1;exitX=1;exitY=0.5;exitDx=0;exitDy=0;endSize=3;startSize=3;entryX=0;entryY=0.5;entryDx=0;entryDy=0;" parent="1" source="a2sFDN_NWmxtTnVPATm6-36" target="DbUrJSsnT1rQDzhDRlxK-43" edge="1">
          <mxGeometry relative="1" as="geometry">
            <mxPoint x="1192.25" y="428.7500000000002" as="sourcePoint" />
            <mxPoint x="1340.75" y="472.75" as="targetPoint" />
          </mxGeometry>
        </mxCell>
        <mxCell id="a2sFDN_NWmxtTnVPATm6-40" value="" style="rounded=1;orthogonalLoop=1;jettySize=auto;endArrow=oval;endFill=1;shadow=0;fixDash=0;backgroundOutline=0;labelBorderColor=none;verticalAlign=middle;strokeWidth=1;strokeColor=#B5739D;startArrow=oval;startFill=1;exitX=1;exitY=0.5;exitDx=0;exitDy=0;endSize=3;startSize=3;entryX=0;entryY=0.5;entryDx=0;entryDy=0;" parent="1" source="a2sFDN_NWmxtTnVPATm6-37" target="ME_lDW3y6QbKv71wfPjl-31" edge="1">
          <mxGeometry relative="1" as="geometry">
            <mxPoint x="1202.25" y="438.7500000000002" as="sourcePoint" />
            <mxPoint x="1350.75" y="482.75" as="targetPoint" />
          </mxGeometry>
        </mxCell>
        <mxCell id="a2sFDN_NWmxtTnVPATm6-43" value="chkTratamientos" style="text;html=1;fillColor=none;align=center;verticalAlign=middle;whiteSpace=wrap;rounded=0;strokeColor=none;fontColor=#0000CC;fontStyle=1;fontSize=10;" parent="1" vertex="1">
          <mxGeometry x="1205" y="498" width="86" height="23" as="geometry" />
        </mxCell>
        <mxCell id="a2sFDN_NWmxtTnVPATm6-44" value="chkDieta" style="text;html=1;fillColor=none;align=center;verticalAlign=middle;whiteSpace=wrap;rounded=0;strokeColor=none;fontColor=#0000CC;fontStyle=1;fontSize=10;" parent="1" vertex="1">
          <mxGeometry x="1162" y="518.25" width="48" height="23" as="geometry" />
        </mxCell>
        <mxCell id="vDK-fp_pYAIKcx1m6-qS-1" value="&lt;span style=&quot;text-align: center;&quot;&gt;&lt;font style=&quot;font-size: 11px;&quot;&gt;blnTratamientos&lt;/font&gt;&lt;/span&gt;" style="text;html=1;fillColor=#ffffff;align=left;verticalAlign=middle;whiteSpace=wrap;rounded=0;strokeColor=none;fontColor=#FF0000;fontStyle=1;fontSize=11;spacingLeft=2;fillStyle=solid;gradientColor=none;fillOpacity=100;" parent="1" vertex="1">
          <mxGeometry x="1338" y="521" width="118.11" height="19.685" as="geometry" />
        </mxCell>
        <mxCell id="vDK-fp_pYAIKcx1m6-qS-2" value="&lt;span style=&quot;text-align: center;&quot;&gt;&lt;font style=&quot;font-size: 11px;&quot;&gt;blnDieta&lt;/font&gt;&lt;/span&gt;" style="text;html=1;fillColor=#ffffff;align=left;verticalAlign=middle;whiteSpace=wrap;rounded=0;strokeColor=none;fontColor=#FF0000;fontStyle=1;fontSize=11;spacingLeft=2;fillStyle=solid;gradientColor=none;fillOpacity=100;" parent="1" vertex="1">
          <mxGeometry x="1338" y="545" width="118.11" height="19.685" as="geometry" />
        </mxCell>
        <mxCell id="vDK-fp_pYAIKcx1m6-qS-4" value="" style="rounded=1;orthogonalLoop=1;jettySize=auto;endArrow=oval;endFill=1;shadow=0;fixDash=0;backgroundOutline=0;labelBorderColor=none;verticalAlign=middle;strokeWidth=1;strokeColor=#B5739D;startArrow=oval;startFill=1;exitX=1;exitY=0.5;exitDx=0;exitDy=0;endSize=3;startSize=3;entryX=0;entryY=0.5;entryDx=0;entryDy=0;" parent="1" source="a2sFDN_NWmxtTnVPATm6-44" target="vDK-fp_pYAIKcx1m6-qS-2" edge="1">
          <mxGeometry relative="1" as="geometry">
            <mxPoint x="1135.75" y="593.25" as="sourcePoint" />
            <mxPoint x="1264.2500000000002" y="633" as="targetPoint" />
          </mxGeometry>
        </mxCell>
        <mxCell id="vDK-fp_pYAIKcx1m6-qS-5" value="" style="rounded=1;orthogonalLoop=1;jettySize=auto;endArrow=oval;endFill=1;shadow=0;fixDash=0;backgroundOutline=0;labelBorderColor=none;verticalAlign=middle;strokeWidth=1;strokeColor=#B5739D;startArrow=oval;startFill=1;exitX=1;exitY=0.5;exitDx=0;exitDy=0;endSize=3;startSize=3;entryX=0;entryY=0.5;entryDx=0;entryDy=0;" parent="1" source="a2sFDN_NWmxtTnVPATm6-43" target="vDK-fp_pYAIKcx1m6-qS-1" edge="1">
          <mxGeometry relative="1" as="geometry">
            <mxPoint x="1222.25" y="562" as="sourcePoint" />
            <mxPoint x="1350.7500000000002" y="601.75" as="targetPoint" />
          </mxGeometry>
        </mxCell>
        <mxCell id="m1atIyZ4gX1CUayxEhNT-8" value="dspEdad" style="text;html=1;fillColor=none;align=center;verticalAlign=middle;whiteSpace=wrap;rounded=0;strokeColor=none;fontColor=#0000CC;fontStyle=1;fontSize=10;labelBackgroundColor=#ffffff;" parent="1" vertex="1">
          <mxGeometry x="970" y="432.25" width="80" height="23" as="geometry" />
        </mxCell>
        <mxCell id="m1atIyZ4gX1CUayxEhNT-11" value="grpUbicacion" style="text;html=1;fillColor=none;align=left;verticalAlign=middle;whiteSpace=wrap;rounded=0;strokeColor=none;fontColor=#999999;fontStyle=1;fontSize=10;" parent="1" vertex="1">
          <mxGeometry x="1069" y="372" width="77" height="23" as="geometry" />
        </mxCell>
        <mxCell id="TpqVqiyU344UTFMwb6-c-4" value="txtBuscar" style="text;html=1;fillColor=none;align=center;verticalAlign=middle;whiteSpace=wrap;rounded=0;strokeColor=none;fontColor=#0000CC;fontStyle=1;fontSize=10;" parent="1" vertex="1">
          <mxGeometry x="978" y="128.5" width="79" height="23" as="geometry" />
        </mxCell>
        <mxCell id="TpqVqiyU344UTFMwb6-c-5" value="tableWidgetLeft" style="text;html=1;fillColor=none;align=center;verticalAlign=middle;whiteSpace=wrap;rounded=0;strokeColor=none;fontColor=#0000CC;fontStyle=1;fontSize=10;" parent="1" vertex="1">
          <mxGeometry x="888" y="219.5" width="79" height="23" as="geometry" />
        </mxCell>
        <mxCell id="TpqVqiyU344UTFMwb6-c-6" value="tableWidgetRight" style="text;html=1;fillColor=none;align=center;verticalAlign=middle;whiteSpace=wrap;rounded=0;strokeColor=none;fontColor=#0000CC;fontStyle=1;fontSize=10;" parent="1" vertex="1">
          <mxGeometry x="1128" y="219.5" width="79" height="23" as="geometry" />
        </mxCell>
        <mxCell id="TpqVqiyU344UTFMwb6-c-7" value="lstIdCaravanas" style="text;html=1;fillColor=#ffffff;align=left;verticalAlign=middle;whiteSpace=wrap;rounded=0;strokeColor=none;fontColor=#FF0000;fontStyle=1;fontSize=11;spacingLeft=2;fillStyle=solid;gradientColor=none;fillOpacity=100;" parent="1" vertex="1">
          <mxGeometry x="1337" y="178.5" width="118.11" height="19.685" as="geometry" />
        </mxCell>
        <mxCell id="TpqVqiyU344UTFMwb6-c-8" value="" style="rounded=1;orthogonalLoop=1;jettySize=auto;endArrow=oval;endFill=1;shadow=0;fixDash=0;backgroundOutline=0;labelBorderColor=none;verticalAlign=middle;strokeWidth=1;strokeColor=#B5739D;startArrow=oval;startFill=1;exitX=1;exitY=0.5;exitDx=0;exitDy=0;endSize=3;startSize=3;entryX=0;entryY=0.5;entryDx=0;entryDy=0;" parent="1" source="TpqVqiyU344UTFMwb6-c-6" target="TpqVqiyU344UTFMwb6-c-7" edge="1">
          <mxGeometry relative="1" as="geometry">
            <mxPoint x="1213" y="253.5" as="sourcePoint" />
            <mxPoint x="1320" y="220.5" as="targetPoint" />
          </mxGeometry>
        </mxCell>
        <mxCell id="TpqVqiyU344UTFMwb6-c-49" value="btnToRight" style="text;html=1;fillColor=none;align=center;verticalAlign=middle;whiteSpace=wrap;rounded=0;strokeColor=none;fontColor=#009900;fontStyle=1;fontSize=10;" parent="1" vertex="1">
          <mxGeometry x="1018" y="197.5" width="60" height="23" as="geometry" />
        </mxCell>
        <mxCell id="TpqVqiyU344UTFMwb6-c-9" value="intTipoEntrada" style="text;html=1;fillColor=#ffffff;align=left;verticalAlign=middle;whiteSpace=wrap;rounded=0;strokeColor=none;fontColor=#FF0000;fontStyle=1;fontSize=11;spacingLeft=2;fillStyle=solid;gradientColor=none;fillOpacity=100;" parent="1" vertex="1">
          <mxGeometry x="616" y="153" width="118.11" height="19.685" as="geometry" />
        </mxCell>
        <mxCell id="TpqVqiyU344UTFMwb6-c-10" value="intCategoria" style="text;html=1;fillColor=#ffffff;align=left;verticalAlign=middle;whiteSpace=wrap;rounded=0;strokeColor=none;fontColor=#FF0000;fontStyle=1;fontSize=11;spacingLeft=2;fillStyle=solid;gradientColor=none;fillOpacity=100;" parent="1" vertex="1">
          <mxGeometry x="616" y="176" width="118.11" height="19.685" as="geometry" />
        </mxCell>
        <mxCell id="TpqVqiyU344UTFMwb6-c-11" value="intRaza" style="text;html=1;fillColor=#ffffff;align=left;verticalAlign=middle;whiteSpace=wrap;rounded=0;strokeColor=none;fontColor=#FF0000;fontStyle=1;fontSize=11;spacingLeft=2;fillStyle=solid;gradientColor=none;fillOpacity=100;" parent="1" vertex="1">
          <mxGeometry x="616" y="199" width="118.11" height="19.685" as="geometry" />
        </mxCell>
        <mxCell id="TpqVqiyU344UTFMwb6-c-12" value="intEstablecimiento" style="text;html=1;fillColor=#ffffff;align=left;verticalAlign=middle;whiteSpace=wrap;rounded=0;strokeColor=none;fontColor=#FF0000;fontStyle=1;fontSize=11;fillStyle=solid;gradientColor=none;fillOpacity=100;" parent="1" vertex="1">
          <mxGeometry x="616" y="221" width="118.11" height="19.685" as="geometry" />
        </mxCell>
        <mxCell id="TpqVqiyU344UTFMwb6-c-13" value="intDuenio" style="text;html=1;fillColor=#ffffff;align=left;verticalAlign=middle;whiteSpace=wrap;rounded=0;strokeColor=none;fontColor=#FF0000;fontStyle=1;fontSize=11;spacingLeft=2;fillStyle=solid;gradientColor=none;fillOpacity=100;" parent="1" vertex="1">
          <mxGeometry x="616" y="244" width="118.11" height="19.685" as="geometry" />
        </mxCell>
        <mxCell id="TpqVqiyU344UTFMwb6-c-14" value="intMarca" style="text;html=1;fillColor=#ffffff;align=left;verticalAlign=middle;whiteSpace=wrap;rounded=0;strokeColor=none;fontColor=#FF0000;fontStyle=1;fontSize=11;spacingLeft=2;fillStyle=solid;gradientColor=none;fillOpacity=100;" parent="1" vertex="1">
          <mxGeometry x="616" y="267" width="118.11" height="19.685" as="geometry" />
        </mxCell>
        <mxCell id="TpqVqiyU344UTFMwb6-c-15" value="strComentario" style="text;html=1;fillColor=#ffffff;align=left;verticalAlign=middle;whiteSpace=wrap;rounded=0;strokeColor=none;fontColor=#FF0000;fontStyle=1;fontSize=11;spacingLeft=2;fillStyle=solid;gradientColor=none;fillOpacity=100;" parent="1" vertex="1">
          <mxGeometry x="616" y="312.4" width="118.11" height="19.685" as="geometry" />
        </mxCell>
        <mxCell id="TpqVqiyU344UTFMwb6-c-16" value="blnPregn" style="text;html=1;fillColor=#ffffff;align=left;verticalAlign=middle;whiteSpace=wrap;rounded=0;strokeColor=none;fontColor=#FF0000;fontStyle=1;fontSize=11;spacingLeft=2;fillStyle=solid;gradientColor=none;fillOpacity=100;" parent="1" vertex="1">
          <mxGeometry x="616" y="290" width="118.11" height="19.685" as="geometry" />
        </mxCell>
        <mxCell id="TpqVqiyU344UTFMwb6-c-17" value="cboTipoDeEntrada" style="text;html=1;fillColor=none;align=center;verticalAlign=middle;whiteSpace=wrap;rounded=0;strokeColor=none;fontColor=#0000CC;fontStyle=1;fontSize=10;" parent="1" vertex="1">
          <mxGeometry x="206" y="225.25" width="96" height="23" as="geometry" />
        </mxCell>
        <mxCell id="TpqVqiyU344UTFMwb6-c-18" value="" style="rounded=1;orthogonalLoop=1;jettySize=auto;endArrow=oval;endFill=1;shadow=0;fixDash=0;backgroundOutline=0;labelBorderColor=none;verticalAlign=middle;strokeWidth=1;strokeColor=#B5739D;startArrow=oval;startFill=1;entryX=0;entryY=0.5;entryDx=0;entryDy=0;exitX=1;exitY=0.5;exitDx=0;exitDy=0;endSize=3;startSize=3;" parent="1" source="TpqVqiyU344UTFMwb6-c-17" target="TpqVqiyU344UTFMwb6-c-9" edge="1">
          <mxGeometry relative="1" as="geometry">
            <mxPoint x="246" y="286.25" as="sourcePoint" />
            <mxPoint x="366" y="230.25" as="targetPoint" />
          </mxGeometry>
        </mxCell>
        <mxCell id="TpqVqiyU344UTFMwb6-c-19" value="cboCategoria" style="text;html=1;fillColor=none;align=center;verticalAlign=middle;whiteSpace=wrap;rounded=0;strokeColor=none;fontColor=#0000CC;fontStyle=1;fontSize=10;" parent="1" vertex="1">
          <mxGeometry x="206" y="248.25" width="80" height="23" as="geometry" />
        </mxCell>
        <mxCell id="TpqVqiyU344UTFMwb6-c-20" value="" style="rounded=1;orthogonalLoop=1;jettySize=auto;endArrow=oval;endFill=1;shadow=0;fixDash=0;backgroundOutline=0;labelBorderColor=none;verticalAlign=middle;strokeWidth=1;strokeColor=#B5739D;startArrow=oval;startFill=1;entryX=0;entryY=0.5;entryDx=0;entryDy=0;exitX=1;exitY=0.5;exitDx=0;exitDy=0;endSize=3;startSize=3;" parent="1" source="TpqVqiyU344UTFMwb6-c-19" target="TpqVqiyU344UTFMwb6-c-10" edge="1">
          <mxGeometry relative="1" as="geometry">
            <mxPoint x="312" y="366.75" as="sourcePoint" />
            <mxPoint x="606" y="254.75" as="targetPoint" />
          </mxGeometry>
        </mxCell>
        <mxCell id="TpqVqiyU344UTFMwb6-c-21" value="chkPreniez" style="text;html=1;fillColor=none;align=center;verticalAlign=middle;whiteSpace=wrap;rounded=0;strokeColor=none;fontColor=#0000CC;fontStyle=1;fontSize=10;" parent="1" vertex="1">
          <mxGeometry x="323" y="301" width="69" height="23" as="geometry" />
        </mxCell>
        <mxCell id="TpqVqiyU344UTFMwb6-c-22" value="" style="rounded=1;orthogonalLoop=1;jettySize=auto;endArrow=oval;endFill=1;shadow=0;fixDash=0;backgroundOutline=0;labelBorderColor=none;verticalAlign=middle;strokeWidth=1;strokeColor=#B5739D;startArrow=oval;startFill=1;exitX=1;exitY=0.5;exitDx=0;exitDy=0;endSize=3;startSize=3;entryX=0;entryY=0.5;entryDx=0;entryDy=0;" parent="1" source="TpqVqiyU344UTFMwb6-c-21" target="TpqVqiyU344UTFMwb6-c-16" edge="1">
          <mxGeometry relative="1" as="geometry">
            <mxPoint x="351" y="416.25" as="sourcePoint" />
            <mxPoint x="576" y="326.25" as="targetPoint" />
          </mxGeometry>
        </mxCell>
        <mxCell id="TpqVqiyU344UTFMwb6-c-23" value="cboRaza" style="text;html=1;fillColor=none;align=center;verticalAlign=middle;whiteSpace=wrap;rounded=0;strokeColor=none;fontColor=#0000CC;fontStyle=1;fontSize=10;" parent="1" vertex="1">
          <mxGeometry x="223" y="274.25" width="53" height="23" as="geometry" />
        </mxCell>
        <mxCell id="TpqVqiyU344UTFMwb6-c-24" value="" style="rounded=1;orthogonalLoop=1;jettySize=auto;endArrow=oval;endFill=1;shadow=0;fixDash=0;backgroundOutline=0;labelBorderColor=none;verticalAlign=middle;strokeWidth=1;strokeColor=#B5739D;startArrow=oval;startFill=1;exitX=1;exitY=0.5;exitDx=0;exitDy=0;endSize=3;startSize=3;entryX=0;entryY=0.5;entryDx=0;entryDy=0;" parent="1" source="TpqVqiyU344UTFMwb6-c-23" target="TpqVqiyU344UTFMwb6-c-11" edge="1">
          <mxGeometry relative="1" as="geometry">
            <mxPoint x="326" y="394.15" as="sourcePoint" />
            <mxPoint x="606" y="277.15" as="targetPoint" />
          </mxGeometry>
        </mxCell>
        <mxCell id="TpqVqiyU344UTFMwb6-c-25" value="pteComentario" style="text;html=1;fillColor=none;align=center;verticalAlign=middle;whiteSpace=wrap;rounded=0;strokeColor=none;fontColor=#0000CC;fontStyle=1;fontSize=10;" parent="1" vertex="1">
          <mxGeometry x="302" y="363.85" width="79" height="23" as="geometry" />
        </mxCell>
        <mxCell id="TpqVqiyU344UTFMwb6-c-26" value="" style="rounded=1;orthogonalLoop=1;jettySize=auto;endArrow=oval;endFill=1;shadow=0;fixDash=0;backgroundOutline=0;labelBorderColor=none;verticalAlign=middle;strokeWidth=1;strokeColor=#B5739D;startArrow=oval;startFill=1;exitX=1;exitY=0.5;exitDx=0;exitDy=0;endSize=3;startSize=3;entryX=0;entryY=0.5;entryDx=0;entryDy=0;" parent="1" source="TpqVqiyU344UTFMwb6-c-25" target="TpqVqiyU344UTFMwb6-c-15" edge="1">
          <mxGeometry relative="1" as="geometry">
            <mxPoint x="266" y="463.75" as="sourcePoint" />
            <mxPoint x="576" y="356.25" as="targetPoint" />
          </mxGeometry>
        </mxCell>
        <mxCell id="TpqVqiyU344UTFMwb6-c-27" value="cboEstablecimiento" style="text;html=1;fillColor=none;align=center;verticalAlign=middle;whiteSpace=wrap;rounded=0;strokeColor=none;fontColor=#0000CC;fontStyle=1;fontSize=10;" parent="1" vertex="1">
          <mxGeometry x="426" y="225.25" width="102" height="23" as="geometry" />
        </mxCell>
        <mxCell id="TpqVqiyU344UTFMwb6-c-28" value="" style="rounded=1;orthogonalLoop=1;jettySize=auto;endArrow=oval;endFill=1;shadow=0;fixDash=0;backgroundOutline=0;labelBorderColor=none;verticalAlign=middle;strokeWidth=1;strokeColor=#B5739D;startArrow=oval;startFill=1;exitX=1;exitY=0.5;exitDx=0;exitDy=0;endSize=3;startSize=3;entryX=0;entryY=0.5;entryDx=0;entryDy=0;" parent="1" source="TpqVqiyU344UTFMwb6-c-27" target="TpqVqiyU344UTFMwb6-c-12" edge="1">
          <mxGeometry relative="1" as="geometry">
            <mxPoint x="292" y="517.75" as="sourcePoint" />
            <mxPoint x="606" y="364.75" as="targetPoint" />
          </mxGeometry>
        </mxCell>
        <mxCell id="TpqVqiyU344UTFMwb6-c-29" value="cboDuenio" style="text;html=1;fillColor=none;align=center;verticalAlign=middle;whiteSpace=wrap;rounded=0;strokeColor=none;fontColor=#0000CC;fontStyle=1;fontSize=10;" parent="1" vertex="1">
          <mxGeometry x="426" y="248.25" width="60" height="23" as="geometry" />
        </mxCell>
        <mxCell id="TpqVqiyU344UTFMwb6-c-30" value="" style="rounded=1;orthogonalLoop=1;jettySize=auto;endArrow=oval;endFill=1;shadow=0;fixDash=0;backgroundOutline=0;labelBorderColor=none;verticalAlign=middle;strokeWidth=1;strokeColor=#B5739D;startArrow=oval;startFill=1;exitX=1;exitY=0.5;exitDx=0;exitDy=0;endSize=3;startSize=3;entryX=0;entryY=0.5;entryDx=0;entryDy=0;" parent="1" source="TpqVqiyU344UTFMwb6-c-29" target="TpqVqiyU344UTFMwb6-c-13" edge="1">
          <mxGeometry relative="1" as="geometry">
            <mxPoint x="538" y="366.75" as="sourcePoint" />
            <mxPoint x="605.9999999999998" y="387.75" as="targetPoint" />
          </mxGeometry>
        </mxCell>
        <mxCell id="TpqVqiyU344UTFMwb6-c-31" value="cboMarca" style="text;html=1;fillColor=none;align=center;verticalAlign=middle;whiteSpace=wrap;rounded=0;strokeColor=none;fontColor=#0000CC;fontStyle=1;fontSize=10;" parent="1" vertex="1">
          <mxGeometry x="426" y="274.75" width="60" height="23" as="geometry" />
        </mxCell>
        <mxCell id="TpqVqiyU344UTFMwb6-c-32" value="" style="rounded=1;orthogonalLoop=1;jettySize=auto;endArrow=oval;endFill=1;shadow=0;fixDash=0;backgroundOutline=0;labelBorderColor=none;verticalAlign=middle;strokeWidth=1;strokeColor=#B5739D;startArrow=oval;startFill=1;exitX=1;exitY=0.5;exitDx=0;exitDy=0;endSize=3;startSize=3;entryX=0;entryY=0.5;entryDx=0;entryDy=0;" parent="1" source="TpqVqiyU344UTFMwb6-c-31" target="TpqVqiyU344UTFMwb6-c-14" edge="1">
          <mxGeometry relative="1" as="geometry">
            <mxPoint x="496" y="389.75" as="sourcePoint" />
            <mxPoint x="605.9999999999998" y="397.75" as="targetPoint" />
          </mxGeometry>
        </mxCell>
        <mxCell id="TpqVqiyU344UTFMwb6-c-37" value="dlgIngresoAnimales" style="text;html=1;fillColor=none;align=left;verticalAlign=middle;whiteSpace=wrap;rounded=0;strokeColor=none;fontColor=#000000;fontStyle=1;fontSize=10;" parent="1" vertex="1">
          <mxGeometry x="90" y="130" width="190" height="23" as="geometry" />
        </mxCell>
        <mxCell id="TpqVqiyU344UTFMwb6-c-38" value="btnOtros" style="text;html=1;fillColor=none;align=center;verticalAlign=middle;whiteSpace=wrap;rounded=0;strokeColor=none;fontColor=#009900;fontStyle=1;fontSize=10;" parent="1" vertex="1">
          <mxGeometry x="1078" y="298.5" width="77" height="23" as="geometry" />
        </mxCell>
        <mxCell id="TpqVqiyU344UTFMwb6-c-39" value="btnNewTag" style="text;html=1;fillColor=none;align=center;verticalAlign=middle;whiteSpace=wrap;rounded=0;strokeColor=none;fontColor=#009900;fontStyle=1;fontSize=10;" parent="1" vertex="1">
          <mxGeometry x="974" y="298.5" width="77" height="23" as="geometry" />
        </mxCell>
        <mxCell id="TpqVqiyU344UTFMwb6-c-46" value="radFechaNacimiento" style="text;html=1;fillColor=#ffffff;align=right;verticalAlign=middle;whiteSpace=wrap;rounded=0;strokeColor=none;fontColor=#009900;fontStyle=1;fontSize=10;fillStyle=solid;gradientColor=none;fillOpacity=100;" parent="1" vertex="1">
          <mxGeometry x="716" y="409" width="118.11" height="19.685" as="geometry" />
        </mxCell>
        <mxCell id="TpqVqiyU344UTFMwb6-c-47" value="radEdad" style="text;html=1;fillColor=#ffffff;align=right;verticalAlign=middle;whiteSpace=wrap;rounded=0;strokeColor=none;fontColor=#009900;fontStyle=1;fontSize=10;fillStyle=solid;gradientColor=none;fillOpacity=100;" parent="1" vertex="1">
          <mxGeometry x="716" y="431" width="118.11" height="19.685" as="geometry" />
        </mxCell>
        <mxCell id="TpqVqiyU344UTFMwb6-c-48" value="btnToLeft" style="text;html=1;fillColor=none;align=center;verticalAlign=middle;whiteSpace=wrap;rounded=0;strokeColor=none;fontColor=#009900;fontStyle=1;fontSize=10;" parent="1" vertex="1">
          <mxGeometry x="1018" y="256.5" width="60" height="23" as="geometry" />
        </mxCell>
        <mxCell id="TpqVqiyU344UTFMwb6-c-40" value="btnCancel" style="text;html=1;fillColor=none;align=center;verticalAlign=middle;whiteSpace=wrap;rounded=0;strokeColor=none;fontColor=#009900;fontStyle=1;fontSize=10;" parent="1" vertex="1">
          <mxGeometry x="402" y="417" width="77" height="23" as="geometry" />
        </mxCell>
        <mxCell id="TpqVqiyU344UTFMwb6-c-41" value="btnOk" style="text;html=1;fillColor=none;align=center;verticalAlign=middle;whiteSpace=wrap;rounded=0;strokeColor=none;fontColor=#009900;fontStyle=1;fontSize=10;" parent="1" vertex="1">
          <mxGeometry x="487.5" y="417" width="77" height="23" as="geometry" />
        </mxCell>
      </root>
    </mxGraphModel>
  </diagram>
</mxfile>
